<?xml version="1.0" encoding="UTF-8" standalone="no"?>
<svg xmlns="http://www.w3.org/2000/svg"
     xmlns:xlink="http://www.w3.org/1999/xlink"
     width="576px" height="433px" viewBox="0 0 576 433">
<title>glps_renderer figure</title>
<desc>
Creator: GL2PS 1.3.9, (C) 1999-2015 C. Geuzaine
For: Octave
CreationDate: Tue Nov 22 22:19:36 2016
</desc>
<defs>
</defs>
<g shape-rendering="crispEdges">
<polygon fill="#ffffff" points="74.88,384.48 521.28,384.48 74.88,32.4"/>
<polygon fill="#ffffff" points="521.28,384.48 521.28,32.4 74.88,32.4"/>
<polyline fill="none" stroke="#000000" stroke-width="0.5" stroke-dasharray="16,0" points="74.88,384.48 521.28,384.48"/>
<polyline fill="none" stroke="#000000" stroke-width="0.5" stroke-dasharray="16,0" points="74.88,32.4 521.28,32.4"/>
<polyline fill="none" stroke="#000000" stroke-width="0.5" stroke-dasharray="16,0" points="74.88,384.48 74.88,32.4"/>
<polyline fill="none" stroke="#000000" stroke-width="0.5" stroke-dasharray="16,0" points="521.28,384.48 521.28,32.4"/>
<polyline fill="none" stroke="#000000" stroke-width="0.5" stroke-dasharray="16,0" points="75.3264,384.48 75.3264,380.015"/>
<polyline fill="none" stroke="#000000" stroke-width="0.5" stroke-dasharray="16,0" points="75.3264,32.4 75.3264,36.8651"/>
<polyline fill="none" stroke="#000000" stroke-width="0.5" stroke-dasharray="16,0" points="97.6464,384.48 97.6464,380.015"/>
<polyline fill="none" stroke="#000000" stroke-width="0.5" stroke-dasharray="16,0" points="97.6464,32.4 97.6464,36.8651"/>
<polyline fill="none" stroke="#000000" stroke-width="0.5" stroke-dasharray="16,0" points="119.966,384.48 119.966,380.015"/>
<polyline fill="none" stroke="#000000" stroke-width="0.5" stroke-dasharray="16,0" points="119.966,32.4 119.966,36.8651"/>
<polyline fill="none" stroke="#000000" stroke-width="0.5" stroke-dasharray="16,0" points="142.286,384.48 142.286,380.015"/>
<polyline fill="none" stroke="#000000" stroke-width="0.5" stroke-dasharray="16,0" points="142.286,32.4 142.286,36.8651"/>
<polyline fill="none" stroke="#000000" stroke-width="0.5" stroke-dasharray="16,0" points="164.606,384.48 164.606,380.015"/>
<polyline fill="none" stroke="#000000" stroke-width="0.5" stroke-dasharray="16,0" points="164.606,32.4 164.606,36.8651"/>
<polyline fill="none" stroke="#000000" stroke-width="0.5" stroke-dasharray="16,0" points="186.926,384.48 186.926,380.015"/>
<polyline fill="none" stroke="#000000" stroke-width="0.5" stroke-dasharray="16,0" points="186.926,32.4 186.926,36.8651"/>
<polyline fill="none" stroke="#000000" stroke-width="0.5" stroke-dasharray="16,0" points="209.246,384.48 209.246,380.015"/>
<polyline fill="none" stroke="#000000" stroke-width="0.5" stroke-dasharray="16,0" points="209.246,32.4 209.246,36.8651"/>
<polyline fill="none" stroke="#000000" stroke-width="0.5" stroke-dasharray="16,0" points="231.566,384.48 231.566,380.015"/>
<polyline fill="none" stroke="#000000" stroke-width="0.5" stroke-dasharray="16,0" points="231.566,32.4 231.566,36.8651"/>
<polyline fill="none" stroke="#000000" stroke-width="0.5" stroke-dasharray="16,0" points="253.886,384.48 253.886,380.015"/>
<polyline fill="none" stroke="#000000" stroke-width="0.5" stroke-dasharray="16,0" points="253.886,32.4 253.886,36.8651"/>
<polyline fill="none" stroke="#000000" stroke-width="0.5" stroke-dasharray="16,0" points="276.206,384.48 276.206,380.015"/>
<polyline fill="none" stroke="#000000" stroke-width="0.5" stroke-dasharray="16,0" points="276.206,32.4 276.206,36.8651"/>
<polyline fill="none" stroke="#000000" stroke-width="0.5" stroke-dasharray="16,0" points="298.526,384.48 298.526,380.015"/>
<polyline fill="none" stroke="#000000" stroke-width="0.5" stroke-dasharray="16,0" points="298.526,32.4 298.526,36.8651"/>
<polyline fill="none" stroke="#000000" stroke-width="0.5" stroke-dasharray="16,0" points="320.846,384.48 320.846,380.015"/>
<polyline fill="none" stroke="#000000" stroke-width="0.5" stroke-dasharray="16,0" points="320.846,32.4 320.846,36.8651"/>
<polyline fill="none" stroke="#000000" stroke-width="0.5" stroke-dasharray="16,0" points="343.166,384.48 343.166,380.015"/>
<polyline fill="none" stroke="#000000" stroke-width="0.5" stroke-dasharray="16,0" points="343.166,32.4 343.166,36.8651"/>
<polyline fill="none" stroke="#000000" stroke-width="0.5" stroke-dasharray="16,0" points="365.486,384.48 365.486,380.015"/>
<polyline fill="none" stroke="#000000" stroke-width="0.5" stroke-dasharray="16,0" points="365.486,32.4 365.486,36.8651"/>
<polyline fill="none" stroke="#000000" stroke-width="0.5" stroke-dasharray="16,0" points="387.806,384.48 387.806,380.015"/>
<polyline fill="none" stroke="#000000" stroke-width="0.5" stroke-dasharray="16,0" points="387.806,32.4 387.806,36.8651"/>
<polyline fill="none" stroke="#000000" stroke-width="0.5" stroke-dasharray="16,0" points="410.126,384.48 410.126,380.015"/>
<polyline fill="none" stroke="#000000" stroke-width="0.5" stroke-dasharray="16,0" points="410.126,32.4 410.126,36.8651"/>
<polyline fill="none" stroke="#000000" stroke-width="0.5" stroke-dasharray="16,0" points="432.446,384.48 432.446,380.015"/>
<polyline fill="none" stroke="#000000" stroke-width="0.5" stroke-dasharray="16,0" points="432.446,32.4 432.446,36.8651"/>
<polyline fill="none" stroke="#000000" stroke-width="0.5" stroke-dasharray="16,0" points="454.766,384.48 454.766,380.015"/>
<polyline fill="none" stroke="#000000" stroke-width="0.5" stroke-dasharray="16,0" points="454.766,32.4 454.766,36.8651"/>
<polyline fill="none" stroke="#000000" stroke-width="0.5" stroke-dasharray="16,0" points="477.086,384.48 477.086,380.015"/>
<polyline fill="none" stroke="#000000" stroke-width="0.5" stroke-dasharray="16,0" points="477.086,32.4 477.086,36.8651"/>
<polyline fill="none" stroke="#000000" stroke-width="0.5" stroke-dasharray="16,0" points="499.406,384.48 499.406,380.015"/>
<polyline fill="none" stroke="#000000" stroke-width="0.5" stroke-dasharray="16,0" points="499.406,32.4 499.406,36.8651"/>
<text fill="#000000" x="75.3264" y="389.481" font-size="10" text-anchor="middle" baseline-shift="-10" font-family="Helvetica">1</text>
<text fill="#000000" x="97.6464" y="389.481" font-size="10" text-anchor="middle" baseline-shift="-10" font-family="Helvetica">51</text>
<text fill="#000000" x="119.966" y="389.481" font-size="10" text-anchor="middle" baseline-shift="-10" font-family="Helvetica">101</text>
<text fill="#000000" x="142.286" y="389.481" font-size="10" text-anchor="middle" baseline-shift="-10" font-family="Helvetica">151</text>
<text fill="#000000" x="164.606" y="389.481" font-size="10" text-anchor="middle" baseline-shift="-10" font-family="Helvetica">201</text>
<text fill="#000000" x="186.926" y="389.481" font-size="10" text-anchor="middle" baseline-shift="-10" font-family="Helvetica">251</text>
<text fill="#000000" x="209.246" y="389.481" font-size="10" text-anchor="middle" baseline-shift="-10" font-family="Helvetica">301</text>
<text fill="#000000" x="231.566" y="389.481" font-size="10" text-anchor="middle" baseline-shift="-10" font-family="Helvetica">351</text>
<text fill="#000000" x="253.886" y="389.481" font-size="10" text-anchor="middle" baseline-shift="-10" font-family="Helvetica">401</text>
<text fill="#000000" x="276.206" y="389.481" font-size="10" text-anchor="middle" baseline-shift="-10" font-family="Helvetica">451</text>
<text fill="#000000" x="298.526" y="389.481" font-size="10" text-anchor="middle" baseline-shift="-10" font-family="Helvetica">501</text>
<text fill="#000000" x="320.846" y="389.481" font-size="10" text-anchor="middle" baseline-shift="-10" font-family="Helvetica">551</text>
<text fill="#000000" x="343.166" y="389.481" font-size="10" text-anchor="middle" baseline-shift="-10" font-family="Helvetica">601</text>
<text fill="#000000" x="365.486" y="389.481" font-size="10" text-anchor="middle" baseline-shift="-10" font-family="Helvetica">651</text>
<text fill="#000000" x="387.806" y="389.481" font-size="10" text-anchor="middle" baseline-shift="-10" font-family="Helvetica">701</text>
<text fill="#000000" x="410.126" y="389.481" font-size="10" text-anchor="middle" baseline-shift="-10" font-family="Helvetica">751</text>
<text fill="#000000" x="432.446" y="389.481" font-size="10" text-anchor="middle" baseline-shift="-10" font-family="Helvetica">801</text>
<text fill="#000000" x="454.766" y="389.481" font-size="10" text-anchor="middle" baseline-shift="-10" font-family="Helvetica">851</text>
<text fill="#000000" x="477.086" y="389.481" font-size="10" text-anchor="middle" baseline-shift="-10" font-family="Helvetica">901</text>
<text fill="#000000" x="499.406" y="389.481" font-size="10" text-anchor="middle" baseline-shift="-10" font-family="Helvetica">951</text>
<polyline fill="none" stroke="#000000" stroke-width="0.5" stroke-dasharray="16,0" points="74.88,384.48 79.348,384.48"/>
<polyline fill="none" stroke="#000000" stroke-width="0.5" stroke-dasharray="16,0" points="521.28,384.48 516.812,384.48"/>
<polyline fill="none" stroke="#000000" stroke-width="0.5" stroke-dasharray="16,0" points="74.88,296.46 79.348,296.46"/>
<polyline fill="none" stroke="#000000" stroke-width="0.5" stroke-dasharray="16,0" points="521.28,296.46 516.812,296.46"/>
<polyline fill="none" stroke="#000000" stroke-width="0.5" stroke-dasharray="16,0" points="74.88,208.44 79.348,208.44"/>
<polyline fill="none" stroke="#000000" stroke-width="0.5" stroke-dasharray="16,0" points="521.28,208.44 516.812,208.44"/>
<polyline fill="none" stroke="#000000" stroke-width="0.5" stroke-dasharray="16,0" points="74.88,120.42 79.348,120.42"/>
<polyline fill="none" stroke="#000000" stroke-width="0.5" stroke-dasharray="16,0" points="521.28,120.42 516.812,120.42"/>
<polyline fill="none" stroke="#000000" stroke-width="0.5" stroke-dasharray="16,0" points="74.88,32.4 79.348,32.4"/>
<polyline fill="none" stroke="#000000" stroke-width="0.5" stroke-dasharray="16,0" points="521.28,32.4 516.812,32.4"/>
<text fill="#000000" x="69.8755" y="384.48" font-size="10" text-anchor="end" baseline-shift="-5" font-family="Helvetica">-0.005</text>
<text fill="#000000" x="69.8755" y="296.46" font-size="10" text-anchor="end" baseline-shift="-5" font-family="Helvetica">0</text>
<text fill="#000000" x="69.8755" y="208.44" font-size="10" text-anchor="end" baseline-shift="-5" font-family="Helvetica">0.005</text>
<text fill="#000000" x="69.8755" y="120.42" font-size="10" text-anchor="end" baseline-shift="-5" font-family="Helvetica">0.01</text>
<text fill="#000000" x="69.8755" y="32.4" font-size="10" text-anchor="end" baseline-shift="-5" font-family="Helvetica">0.015</text>
<text fill="#000000" x="298.08" y="400.481" font-size="10" text-anchor="middle" baseline-shift="-10" font-family="Helvetica">tau</text>
<text fill="#000000" x="34.8755" y="208.44" font-size="10" transform="rotate(-90, 34.8755, 208.44)" text-anchor="middle" baseline-shift="0" font-family="Helvetica">autocorrelation</text>
<polyline fill="none" stroke="#0000ff" stroke-width="0.5" points="75.3264,78.6087 75.7728,225.8 76.2192,357.375 76.6656,337.387 77.112,326.293 77.5584,285.67 78.0048,249.455 78.4512,283.516 78.8976,314.061 79.344,295.925 79.7904,285.866 80.2368,283.276 80.6832,284.77 81.1296,296.766 81.576,300.323 82.0224,302.557 82.4688,295.968 82.9152,279.308 83.3616,286.852 83.808,305.157 84.2544,302.219 84.7008,295.955 85.1472,294.615 85.5936,298.146 86.04,302.874 86.4864,299.101 86.9328,299.911 87.3792,297.395 87.8256,292.365 88.272,298.685 88.7184,298.849 89.1648,296.754 89.6112,300.316 90.0576,298.011 90.504,295.638 90.9504,300.247 91.3968,305.249 91.8432,302.558 92.2896,297.749 92.736,296.588 93.1824,297.226 93.6288,299.466 94.0752,304.404 94.5216,308.517 94.968,301.469 95.4144,290.95 95.8608,295.454 96.3072,303.235 96.7536,305.691 97.2,307.72 97.6464,299.724 98.0928,288.296 98.5392,296.096 98.9856,307.645 99.432,300.784 99.8784,295.344 100.325,298.068 100.771,297.041 101.218,296.602 101.664,297.815 102.11,294.453 102.557,294.804 103.003,300.237 103.45,296.946 103.896,293.398 104.342,295.735 104.789,293.642 105.235,292.242 105.682,295.285 106.128,295.342 106.574,296.847 107.021,301.295 107.467,298.821 107.914,291.698 108.36,289.175 108.806,289.681 109.253,290.384 109.699,294.584 110.146,297.739 110.592,299.34 111.038,300.198 111.485,298.399 111.931,295.369 112.378,291.674 112.824,292.093 113.27,295.614 113.717,297.758 114.163,296.021 114.61,292.075 115.056,292.423 115.502,300.573 115.949,300.3 116.395,296.384 116.842,298.221 117.288,291.15 117.734,290.921 118.181,297.444 118.627,296.195 119.074,298.165 119.52,303.234 119.966,297.156 120.413,289.357 120.859,293.252 121.306,294.207 121.752,292.93 122.198,299.136 122.645,300.358 123.091,297.162 123.538,297.563 123.984,294.895 124.43,294.222 124.877,300.017 125.323,306.447 125.77,301.769 126.216,288.668 126.662,296.828 127.109,305.076 127.555,297.126 128.002,298.909 128.448,294.988 128.894,287.627 129.341,296.82 129.787,304.73 130.234,304.153 130.68,303.206 131.126,296.69 131.573,286.147 132.019,291.094 132.466,298.084 132.912,298.625 133.358,304.053 133.805,297.443 134.251,289.878 134.698,298.982 135.144,294.332 135.59,290.605 136.037,301.194 136.483,299.904 136.93,296.022 137.376,293.377 137.822,291.397 138.269,292.945 138.715,297.376 139.162,300.326 139.608,300.415 140.054,295.851 140.501,291.96 140.947,296.365 141.394,298.116 141.84,296.684 142.286,295.075 142.733,291.966 143.179,288.732 143.626,294.229 144.072,301.901 144.518,300.79 144.965,300.265 145.411,298.657 145.858,294.252 146.304,293.982 146.75,298.582 147.197,298.039 147.643,295.746 148.09,298.976 148.536,295.19 148.982,289.206 149.429,294.558 149.875,299.12 150.322,296.855 150.768,298.395 151.214,300.361 151.661,299.392 152.107,293.462 152.554,287.928 153,295.84 153.446,301.098 153.893,298.345 154.339,299.58 154.786,297.834 155.232,292.993 155.678,294.099 156.125,298.807 156.571,297.813 157.018,294.492 157.464,298.543 157.91,302.338 158.357,300.602 158.803,300.854 159.25,299.399 159.696,293.522 160.142,295.663 160.589,302.293 161.035,300.248 161.482,297.851 161.928,299.851 162.374,296.62 162.821,293.048 163.267,299.112 163.714,301.847 164.16,295.923 164.606,297.529 165.053,300.193 165.499,297.294 165.946,300.343 166.392,301.239 166.838,296.075 167.285,295.863 167.731,297.438 168.178,295.316 168.624,294.762 169.07,296 169.517,296.779 169.963,299.388 170.41,300.009 170.856,299.016 171.302,298.051 171.749,296.315 172.195,296.502 172.642,297.449 173.088,299.107 173.534,298.141 173.981,296.112 174.427,296.623 174.874,295.488 175.32,294.83 175.766,297.242 176.213,297.148 176.659,294.772 177.106,295.341 177.552,296.561 177.998,295.843 178.445,296.053 178.891,298.918 179.338,297.476 179.784,293.009 180.23,292.989 180.677,294.057 181.123,295.917 181.57,297.634 182.016,295.497 182.462,294.86 182.909,295.882 183.355,296.617 183.802,297.228 184.248,297.996 184.694,298.993 185.141,294.875 185.587,297.184 186.034,302.324 186.48,296.11 186.926,293.832 187.373,295.285 187.819,295.132 188.266,299.755 188.712,303.334 189.158,296.262 189.605,288.876 190.051,293.936 190.498,301.195 190.944,301.854 191.39,299.276 191.837,296.283 192.283,296.879 192.73,299.758 193.176,300.548 193.622,298.985 194.069,294.23 194.515,296.049 194.962,300.431 195.408,298.192 195.854,301.433 196.301,302.085 196.747,293.284 197.194,294.722 197.64,300.792 198.086,298.179 198.533,295.484 198.979,297.41 199.426,297.285 199.872,296.105 200.318,298.385 200.765,296.385 201.211,295.634 201.658,298.873 202.104,298.272 202.55,300.5 202.997,298.38 203.443,292.916 203.89,301.526 204.336,303.511 204.782,294.613 205.229,297.835 205.675,298.335 206.122,291.959 206.568,297.948 207.014,306.339 207.461,301.649 207.907,294.78 208.354,291.879 208.8,290.666 209.246,294.353 209.693,299.217 210.139,300.457 210.586,295.354 211.032,291.57 211.478,296.747 211.925,299.302 212.371,295.878 212.818,296.873 213.264,296.099 213.71,291.642 214.157,293.74 214.603,295.477 215.05,295.361 215.496,297.936 215.942,296.961 216.389,293.135 216.835,292.711 217.282,294.077 217.728,297.057 218.174,301.192 218.621,301.883 219.067,296.65 219.514,289.978 219.96,291.109 220.406,296.565 220.853,299.09 221.299,301.005 221.746,298.928 222.192,293.848 222.638,293.498 223.085,294.313 223.531,295.266 223.978,296.911 224.424,294.248 224.87,294.405 225.317,300.418 225.763,298.964 226.21,293.898 226.656,297.258 227.102,298.341 227.549,293.713 227.995,296.315 228.442,300.007 228.888,294.474 229.334,291.283 229.781,297.201 230.227,298.269 230.674,295.196 231.12,299.98 231.566,300.117 232.013,294.114 232.459,295.888 232.906,295.656 233.352,292.934 233.798,295.412 234.245,297.118 234.691,297.783 235.138,300.641 235.584,298.494 236.03,291.792 236.477,292.628 236.923,295.921 237.37,297.195 237.816,300.21 238.262,298.688 238.709,296.188 239.155,301.696 239.602,302.857 240.048,293.794 240.494,289.645 240.941,295.058 241.387,300.803 241.834,301.634 242.28,298.532 242.726,291.087 243.173,289.407 243.619,298.078 244.066,300.011 244.512,294.616 244.958,293.8 245.405,295.023 245.851,296.815 246.298,298.466 246.744,297.859 247.19,295.045 247.637,294.537 248.083,300.096 248.53,302.44 248.976,299.133 249.422,297.526 249.869,296.567 250.315,293.846 250.762,298.078 251.208,303.859 251.654,299.99 252.101,298.014 252.547,300.172 252.994,298.582 253.44,298.194 253.886,297.391 254.333,295.387 254.779,298.607 255.226,301.117 255.672,297.066 256.118,294.245 256.565,297.457 257.011,295.478 257.458,291.959 257.904,295.038 258.35,295.936 258.797,296.267 259.243,300.88 259.69,302.159 260.136,294.738 260.582,291.654 261.029,297.092 261.475,298.257 261.922,296.196 262.368,295.234 262.814,292.229 263.261,290.434 263.707,294.322 264.154,299.092 264.6,299.241 265.046,296.094 265.493,294.042 265.939,295.463 266.386,295.061 266.832,291.088 267.278,290.953 267.725,294.339 268.171,295.31 268.618,296.553 269.064,299.053 269.51,294.971 269.957,289.365 270.403,291.369 270.85,293.211 271.296,292.465 271.742,294.26 272.189,297.241 272.635,297.791 273.082,295.256 273.528,292.989 273.974,290.001 274.421,289.267 274.867,295.353 275.314,296.531 275.76,291.951 276.206,292.345 276.653,290.27 277.099,289.613 277.546,299.317 277.992,302.291 278.438,295.844 278.885,294.907 279.331,294.482 279.778,292.747 280.224,295.798 280.67,296.215 281.117,294.617 281.563,294.227 282.01,292.271 282.456,290.848 282.902,294.162 283.349,300.761 283.795,303.337 284.242,299.217 284.688,293.823 285.134,293.302 285.581,296.987 286.027,300.569 286.474,298.778 286.92,296.942 287.366,297.685 287.813,295.065 288.259,294.624 288.706,296.882 289.152,295.659 289.598,295.749 290.045,297.857 290.491,295.694 290.938,294.252 291.384,298.35 291.83,300.699 292.277,298.266 292.723,296.918 293.17,298.476 293.616,297.31 294.062,294.648 294.509,295.31 294.955,295.315 295.402,296.027 295.848,299.638 296.294,299.726 296.741,295.841 297.187,293.741 297.634,294.691 298.08,295.776 298.526,297.152 298.973,297.464 299.419,296.083 299.866,296.29 300.312,297.491 300.758,295.01 301.205,292.67 301.651,295.349 302.098,295.023 302.544,293.616 302.99,298.272 303.437,300.773 303.883,298.51 304.33,294.456 304.776,291.502 305.222,293.114 305.669,297.116 306.115,299.922 306.562,298.296 307.008,296.376 307.454,295.34 307.901,296.977 308.347,299.715 308.794,296.247 309.24,293.767 309.686,294.972 310.133,296.036 310.579,296.733 311.026,297.65 311.472,300.042 311.918,300.921 312.365,297.21 312.811,294.017 313.258,296.492 313.704,296.745 314.15,296.481 314.597,298.707 315.043,293.941 315.49,288.669 315.936,295.335 316.382,301.053 316.829,296.644 317.275,296.028 317.722,296.84 318.168,293.768 318.614,296.136 319.061,298.438 319.507,293.943 319.954,293.076 320.4,298.094 320.846,300.094 321.293,298.253 321.739,294.606 322.186,290.155 322.632,291.359 323.078,296.385 323.525,297.961 323.971,296.131 324.418,292.398 324.864,291.677 325.31,295.894 325.757,301.217 326.203,301.399 326.65,298.096 327.096,294.871 327.542,290.314 327.989,294.353 328.435,300.547 328.882,295.559 329.328,293.785 329.774,298.62 330.221,297.837 330.667,294.954 331.114,296.055 331.56,298.009 332.006,297.18 332.453,297.575 332.899,300.789 333.346,299.175 333.792,295.535 334.238,295.423 334.685,295.512 335.131,295.841 335.578,296.157 336.024,295.811 336.47,298.052 336.917,298.967 337.363,294.914 337.81,294.537 338.256,298.682 338.702,295.846 339.149,293.479 339.595,299.276 340.042,299.952 340.488,298.793 340.934,301.041 341.381,297.603 341.827,291.926 342.274,294.003 342.72,297.389 343.166,298.058 343.613,298.259 344.059,296.753 344.506,297.701 344.952,299.36 345.398,296.844 345.845,295.968 346.291,300.139 346.738,300.149 347.184,293.62 347.63,289.442 348.077,292.746 348.523,297.416 348.97,297.402 349.416,296.024 349.862,294.05 350.309,292.335 350.755,294.079 351.202,298.94 351.648,304.1 352.094,299.469 352.541,289.65 352.987,292.942 353.434,298.25 353.88,297.94 354.326,302.329 354.773,294.812 355.219,281.013 355.666,290.526 356.112,303.275 356.558,299.801 357.005,298.449 357.451,295.387 357.898,294.465 358.344,303.32 358.79,296.881 359.237,288.723 359.683,296.643 360.13,298.099 360.576,301.393 361.022,306.036 361.469,286.94 361.915,278.269 362.362,298.013 362.808,305.994 363.254,300.501 363.701,297.878 364.147,291.573 364.594,291.178 365.04,302.503 365.486,305.821 365.933,296.787 366.379,292.696 366.826,297.359 367.272,296.832 367.718,294.879 368.165,298.911 368.611,295.25 369.058,290.423 369.504,296.625 369.95,298.331 370.397,294.164 370.843,296.137 371.29,298.552 371.736,300.351 372.182,303.242 372.629,297.803 373.075,291.57 373.522,293.618 373.968,295.825 374.414,300.375 374.861,306.537 375.307,300.927 375.754,291.795 376.2,293.207 376.646,296.213 377.093,298.749 377.539,301.536 377.986,297.68 378.432,293.54 378.878,296.313 379.325,300.622 379.771,299.753 380.218,298.947 380.664,296.754 381.11,288.916 381.557,287.122 382.003,294.524 382.45,301.807 382.896,303.688 383.342,300.832 383.789,295.346 384.235,292.467 384.682,295.092 385.128,297.651 385.574,299.45 386.021,298.982 386.467,297.672 386.914,300.161 387.36,302.106 387.806,300.756 388.253,296.454 388.699,294.236 389.146,298.378 389.592,299.282 390.038,294.932 390.485,298.017 390.931,298.719 391.378,294.867 391.824,299.562 392.27,297.403 392.717,290.516 393.163,296.208 393.61,300.477 394.056,297.151 394.502,295.752 394.949,294.239 395.395,293.246 395.842,295.195 396.288,298.101 396.734,299.525 397.181,295.229 397.627,291.695 398.074,294.38 398.52,294.78 398.966,294.166 399.413,298.817 399.859,299.664 400.306,296.899 400.752,298.69 401.198,295.984 401.645,292.42 402.091,294.552 402.538,292.338 402.984,294.267 403.43,302.769 403.877,300.173 404.323,295.988 404.77,298.361 405.216,295.153 405.662,294.625 406.109,298.358 406.555,296.546 407.002,296.659 407.448,296.931 407.894,295.093 408.341,297.905 408.787,301.04 409.234,299.854 409.68,294.451 410.126,292.544 410.573,296.356 411.019,295.103 411.466,299.003 411.912,307.209 412.358,293.596 412.805,283.974 413.251,301.601 413.698,306.174 414.144,301.897 414.59,301.886 415.037,280.989 415.483,269.833 415.93,290.969 416.376,309.194 416.822,315.747 417.269,313.063 417.715,290.371 418.162,281.246 418.608,294.001 419.054,301.837 419.501,307.881 419.947,302.305 420.394,289.118 420.84,287.977 421.286,292.512 421.733,298.46 422.179,304.308 422.626,298.192 423.072,291.042 423.518,293.679 423.965,294.683 424.411,296.324 424.858,298.374 425.304,296.189 425.75,295.683 426.197,297.013 426.643,296.791 427.09,294.081 427.536,290.662 427.982,290.403 428.429,292.702 428.875,293.971 429.322,294.563 429.768,294.443 430.214,293.989 430.661,295.546 431.107,297.087 431.554,297.406 432,294.179 432.446,290.989 432.893,295.736 433.339,300.37 433.786,300.373 434.232,299.629 434.678,295.403 435.125,290.263 435.571,292.013 436.018,296.522 436.464,297.143 436.91,295.664 437.357,296.223 437.803,299.789 438.25,301.126 438.696,298.245 439.142,293.286 439.589,291.906 440.035,295.67 440.482,299.142 440.928,298.188 441.374,294.918 441.821,295.005 442.267,296.393 442.714,298.332 443.16,299.504 443.606,298.018 444.053,297.856 444.499,297.115 444.946,296.477 445.392,300.724 445.838,302.465 446.285,297.704 446.731,296.189 447.178,296.667 447.624,295.011 448.07,297.324 448.517,300.499 448.963,299.471 449.41,300.125 449.856,301.149 450.302,298.361 450.749,296.125 451.195,297.177 451.642,298.126 452.088,296.659 452.534,296.989 452.981,297.315 453.427,296.101 453.874,295.604 454.32,294.528 454.766,292.683 455.213,293.593 455.659,298.012 456.106,300.165 456.552,299.669 456.998,296.226 457.445,289.859 457.891,290.013 458.338,295.198 458.784,296.228 459.23,296.638 459.677,296.9 460.123,294.452 460.57,294.912 461.016,297.591 461.462,294.854 461.909,290.468 462.355,292.868 462.802,296.409 463.248,297.264 463.694,298.303 464.141,297.256 464.587,293.562 465.034,290.731 465.48,291.402 465.926,296.02 466.373,301.5 466.819,301 467.266,294.662 467.712,292.377 468.158,294.597 468.605,295.696 469.051,295.777 469.498,295.383 469.944,296.222 470.39,298.514 470.837,297.96 471.283,294.968 471.73,295.451 472.176,296.461 472.622,295.167 473.069,296.199 473.515,296.898 473.962,296.386 474.408,299.14 474.854,298.464 475.301,293.088 475.747,295.116 476.194,299.389 476.64,297.037 477.086,296.09 477.533,297.254 477.979,298.422 478.426,302.517 478.872,300.463 479.318,295.337 479.765,297.64 480.211,295.285 480.658,293.769 481.104,302.828 481.55,303.886 481.997,296.831 482.443,295.074 482.89,289.048 483.336,283.712 483.782,294.992 484.229,303.903 484.675,299.29 485.122,298.469 485.568,299.794 486.014,292.77 486.461,292.418 486.907,299.106 487.354,296.278 487.8,292.37 488.246,294.466 488.693,297.591 489.139,299.368 489.586,294.18 490.032,292.036 490.478,302.245 490.925,302.865 491.371,293.697 491.818,291.255 492.264,285.361 492.71,285.025 493.157,302.412 493.603,307.816 494.05,296.033 494.496,294.429 494.942,296.718 495.389,291.199 495.835,292.408 496.282,297.333 496.728,294.835 497.174,295.807 497.621,298.251 498.067,294.455 498.514,294.783 498.96,297.988 499.406,296.137 499.853,295.751 500.299,298.893 500.746,299.179 501.192,297.986 501.638,297.162 502.085,294.209 502.531,291.948 502.978,294.011 503.424,298.477 503.87,297.999 504.317,296.608 504.763,301.397 505.21,299.721 505.656,293.476 506.102,295.11 506.549,295.701 506.995,294.008 507.442,299.321 507.888,302.509 508.334,298.005 508.781,295.015 509.227,294.691 509.674,294.915 510.12,296.786 510.566,299.554 511.013,299.099 511.459,297.12 511.906,299.439 512.352,300.291 512.798,295.903 513.245,299.494 513.691,303.251 514.138,291.562 514.584,288.275 515.03,301.154 515.477,305.133 515.923,301.091 516.37,295.654 516.816,286.04 517.262,288.504 517.709,302.388 518.155,301.316 518.602,296.071 519.048,301.157 519.494,298.918 519.941,292.286 520.387,291.768 520.834,289.653 521.28,291.612"/>
</g>
</svg>
