<?xml version="1.0" encoding="UTF-8" standalone="no"?>
<svg xmlns="http://www.w3.org/2000/svg"
     xmlns:xlink="http://www.w3.org/1999/xlink"
     width="3200px" height="1577px" viewBox="0 0 3200 1577">
<title>glps_renderer figure</title>
<desc>
Creator: GL2PS 1.3.9, (C) 1999-2015 C. Geuzaine
For: Octave
CreationDate: Tue Nov 22 22:19:56 2016
</desc>
<defs>
</defs>
<g shape-rendering="crispEdges">
<polygon fill="#ffffff" points="74.88,384.48 521.28,384.48 74.88,32.4"/>
<polygon fill="#ffffff" points="521.28,384.48 521.28,32.4 74.88,32.4"/>
<polyline fill="none" stroke="#000000" stroke-width="0.5" stroke-dasharray="16,0" points="74.88,384.48 521.28,384.48"/>
<polyline fill="none" stroke="#000000" stroke-width="0.5" stroke-dasharray="16,0" points="74.88,32.4 521.28,32.4"/>
<polyline fill="none" stroke="#000000" stroke-width="0.5" stroke-dasharray="16,0" points="74.88,384.48 74.88,32.4"/>
<polyline fill="none" stroke="#000000" stroke-width="0.5" stroke-dasharray="16,0" points="521.28,384.48 521.28,32.4"/>
<polyline fill="none" stroke="#000000" stroke-width="0.5" stroke-dasharray="16,0" points="75.3264,384.48 75.3264,380.015"/>
<polyline fill="none" stroke="#000000" stroke-width="0.5" stroke-dasharray="16,0" points="75.3264,32.4 75.3264,36.865"/>
<polyline fill="none" stroke="#000000" stroke-width="0.5" stroke-dasharray="16,0" points="97.6465,384.48 97.6465,380.015"/>
<polyline fill="none" stroke="#000000" stroke-width="0.5" stroke-dasharray="16,0" points="97.6465,32.4 97.6465,36.865"/>
<polyline fill="none" stroke="#000000" stroke-width="0.5" stroke-dasharray="16,0" points="119.966,384.48 119.966,380.015"/>
<polyline fill="none" stroke="#000000" stroke-width="0.5" stroke-dasharray="16,0" points="119.966,32.4 119.966,36.865"/>
<polyline fill="none" stroke="#000000" stroke-width="0.5" stroke-dasharray="16,0" points="142.286,384.48 142.286,380.015"/>
<polyline fill="none" stroke="#000000" stroke-width="0.5" stroke-dasharray="16,0" points="142.286,32.4 142.286,36.865"/>
<polyline fill="none" stroke="#000000" stroke-width="0.5" stroke-dasharray="16,0" points="164.606,384.48 164.606,380.015"/>
<polyline fill="none" stroke="#000000" stroke-width="0.5" stroke-dasharray="16,0" points="164.606,32.4 164.606,36.865"/>
<polyline fill="none" stroke="#000000" stroke-width="0.5" stroke-dasharray="16,0" points="186.927,384.48 186.927,380.015"/>
<polyline fill="none" stroke="#000000" stroke-width="0.5" stroke-dasharray="16,0" points="186.927,32.4 186.927,36.865"/>
<polyline fill="none" stroke="#000000" stroke-width="0.5" stroke-dasharray="16,0" points="209.246,384.48 209.246,380.015"/>
<polyline fill="none" stroke="#000000" stroke-width="0.5" stroke-dasharray="16,0" points="209.246,32.4 209.246,36.865"/>
<polyline fill="none" stroke="#000000" stroke-width="0.5" stroke-dasharray="16,0" points="231.566,384.48 231.566,380.015"/>
<polyline fill="none" stroke="#000000" stroke-width="0.5" stroke-dasharray="16,0" points="231.566,32.4 231.566,36.865"/>
<polyline fill="none" stroke="#000000" stroke-width="0.5" stroke-dasharray="16,0" points="253.886,384.48 253.886,380.015"/>
<polyline fill="none" stroke="#000000" stroke-width="0.5" stroke-dasharray="16,0" points="253.886,32.4 253.886,36.865"/>
<polyline fill="none" stroke="#000000" stroke-width="0.5" stroke-dasharray="16,0" points="276.206,384.48 276.206,380.015"/>
<polyline fill="none" stroke="#000000" stroke-width="0.5" stroke-dasharray="16,0" points="276.206,32.4 276.206,36.865"/>
<polyline fill="none" stroke="#000000" stroke-width="0.5" stroke-dasharray="16,0" points="298.526,384.48 298.526,380.015"/>
<polyline fill="none" stroke="#000000" stroke-width="0.5" stroke-dasharray="16,0" points="298.526,32.4 298.526,36.865"/>
<polyline fill="none" stroke="#000000" stroke-width="0.5" stroke-dasharray="16,0" points="320.846,384.48 320.846,380.015"/>
<polyline fill="none" stroke="#000000" stroke-width="0.5" stroke-dasharray="16,0" points="320.846,32.4 320.846,36.865"/>
<polyline fill="none" stroke="#000000" stroke-width="0.5" stroke-dasharray="16,0" points="343.167,384.48 343.167,380.015"/>
<polyline fill="none" stroke="#000000" stroke-width="0.5" stroke-dasharray="16,0" points="343.167,32.4 343.167,36.865"/>
<polyline fill="none" stroke="#000000" stroke-width="0.5" stroke-dasharray="16,0" points="365.486,384.48 365.486,380.015"/>
<polyline fill="none" stroke="#000000" stroke-width="0.5" stroke-dasharray="16,0" points="365.486,32.4 365.486,36.865"/>
<polyline fill="none" stroke="#000000" stroke-width="0.5" stroke-dasharray="16,0" points="387.806,384.48 387.806,380.015"/>
<polyline fill="none" stroke="#000000" stroke-width="0.5" stroke-dasharray="16,0" points="387.806,32.4 387.806,36.865"/>
<polyline fill="none" stroke="#000000" stroke-width="0.5" stroke-dasharray="16,0" points="410.126,384.48 410.126,380.015"/>
<polyline fill="none" stroke="#000000" stroke-width="0.5" stroke-dasharray="16,0" points="410.126,32.4 410.126,36.865"/>
<polyline fill="none" stroke="#000000" stroke-width="0.5" stroke-dasharray="16,0" points="432.447,384.48 432.447,380.015"/>
<polyline fill="none" stroke="#000000" stroke-width="0.5" stroke-dasharray="16,0" points="432.447,32.4 432.447,36.865"/>
<polyline fill="none" stroke="#000000" stroke-width="0.5" stroke-dasharray="16,0" points="454.766,384.48 454.766,380.015"/>
<polyline fill="none" stroke="#000000" stroke-width="0.5" stroke-dasharray="16,0" points="454.766,32.4 454.766,36.865"/>
<polyline fill="none" stroke="#000000" stroke-width="0.5" stroke-dasharray="16,0" points="477.086,384.48 477.086,380.015"/>
<polyline fill="none" stroke="#000000" stroke-width="0.5" stroke-dasharray="16,0" points="477.086,32.4 477.086,36.865"/>
<polyline fill="none" stroke="#000000" stroke-width="0.5" stroke-dasharray="16,0" points="499.406,384.48 499.406,380.015"/>
<polyline fill="none" stroke="#000000" stroke-width="0.5" stroke-dasharray="16,0" points="499.406,32.4 499.406,36.865"/>
<text fill="#000000" x="75.3263" y="389.481" font-size="10" text-anchor="middle" baseline-shift="-10" font-family="Helvetica">1</text>
<text fill="#000000" x="97.6464" y="389.481" font-size="10" text-anchor="middle" baseline-shift="-10" font-family="Helvetica">51</text>
<text fill="#000000" x="119.966" y="389.481" font-size="10" text-anchor="middle" baseline-shift="-10" font-family="Helvetica">101</text>
<text fill="#000000" x="142.286" y="389.481" font-size="10" text-anchor="middle" baseline-shift="-10" font-family="Helvetica">151</text>
<text fill="#000000" x="164.606" y="389.481" font-size="10" text-anchor="middle" baseline-shift="-10" font-family="Helvetica">201</text>
<text fill="#000000" x="186.926" y="389.481" font-size="10" text-anchor="middle" baseline-shift="-10" font-family="Helvetica">251</text>
<text fill="#000000" x="209.246" y="389.481" font-size="10" text-anchor="middle" baseline-shift="-10" font-family="Helvetica">301</text>
<text fill="#000000" x="231.566" y="389.481" font-size="10" text-anchor="middle" baseline-shift="-10" font-family="Helvetica">351</text>
<text fill="#000000" x="253.886" y="389.481" font-size="10" text-anchor="middle" baseline-shift="-10" font-family="Helvetica">401</text>
<text fill="#000000" x="276.206" y="389.481" font-size="10" text-anchor="middle" baseline-shift="-10" font-family="Helvetica">451</text>
<text fill="#000000" x="298.526" y="389.481" font-size="10" text-anchor="middle" baseline-shift="-10" font-family="Helvetica">501</text>
<text fill="#000000" x="320.846" y="389.481" font-size="10" text-anchor="middle" baseline-shift="-10" font-family="Helvetica">551</text>
<text fill="#000000" x="343.166" y="389.481" font-size="10" text-anchor="middle" baseline-shift="-10" font-family="Helvetica">601</text>
<text fill="#000000" x="365.486" y="389.481" font-size="10" text-anchor="middle" baseline-shift="-10" font-family="Helvetica">651</text>
<text fill="#000000" x="387.806" y="389.481" font-size="10" text-anchor="middle" baseline-shift="-10" font-family="Helvetica">701</text>
<text fill="#000000" x="410.126" y="389.481" font-size="10" text-anchor="middle" baseline-shift="-10" font-family="Helvetica">751</text>
<text fill="#000000" x="432.446" y="389.481" font-size="10" text-anchor="middle" baseline-shift="-10" font-family="Helvetica">801</text>
<text fill="#000000" x="454.766" y="389.481" font-size="10" text-anchor="middle" baseline-shift="-10" font-family="Helvetica">851</text>
<text fill="#000000" x="477.086" y="389.481" font-size="10" text-anchor="middle" baseline-shift="-10" font-family="Helvetica">901</text>
<text fill="#000000" x="499.406" y="389.481" font-size="10" text-anchor="middle" baseline-shift="-10" font-family="Helvetica">951</text>
<polyline fill="none" stroke="#000000" stroke-width="0.5" stroke-dasharray="16,0" points="74.88,384.48 79.348,384.48"/>
<polyline fill="none" stroke="#000000" stroke-width="0.5" stroke-dasharray="16,0" points="521.28,384.48 516.812,384.48"/>
<polyline fill="none" stroke="#000000" stroke-width="0.5" stroke-dasharray="16,0" points="74.88,325.8 79.348,325.8"/>
<polyline fill="none" stroke="#000000" stroke-width="0.5" stroke-dasharray="16,0" points="521.28,325.8 516.812,325.8"/>
<polyline fill="none" stroke="#000000" stroke-width="0.5" stroke-dasharray="16,0" points="74.88,267.12 79.348,267.12"/>
<polyline fill="none" stroke="#000000" stroke-width="0.5" stroke-dasharray="16,0" points="521.28,267.12 516.812,267.12"/>
<polyline fill="none" stroke="#000000" stroke-width="0.5" stroke-dasharray="16,0" points="74.88,208.44 79.348,208.44"/>
<polyline fill="none" stroke="#000000" stroke-width="0.5" stroke-dasharray="16,0" points="521.28,208.44 516.812,208.44"/>
<polyline fill="none" stroke="#000000" stroke-width="0.5" stroke-dasharray="16,0" points="74.88,149.76 79.348,149.76"/>
<polyline fill="none" stroke="#000000" stroke-width="0.5" stroke-dasharray="16,0" points="521.28,149.76 516.812,149.76"/>
<polyline fill="none" stroke="#000000" stroke-width="0.5" stroke-dasharray="16,0" points="74.88,91.0801 79.348,91.0801"/>
<polyline fill="none" stroke="#000000" stroke-width="0.5" stroke-dasharray="16,0" points="521.28,91.0801 516.812,91.0801"/>
<polyline fill="none" stroke="#000000" stroke-width="0.5" stroke-dasharray="16,0" points="74.88,32.4 79.348,32.4"/>
<polyline fill="none" stroke="#000000" stroke-width="0.5" stroke-dasharray="16,0" points="521.28,32.4 516.812,32.4"/>
<text fill="#000000" x="69.8755" y="384.48" font-size="10" text-anchor="end" baseline-shift="-5" font-family="Helvetica">-0.002</text>
<text fill="#000000" x="69.8755" y="325.8" font-size="10" text-anchor="end" baseline-shift="-5" font-family="Helvetica">0</text>
<text fill="#000000" x="69.8755" y="267.12" font-size="10" text-anchor="end" baseline-shift="-5" font-family="Helvetica">0.002</text>
<text fill="#000000" x="69.8755" y="208.44" font-size="10" text-anchor="end" baseline-shift="-5" font-family="Helvetica">0.004</text>
<text fill="#000000" x="69.8755" y="149.76" font-size="10" text-anchor="end" baseline-shift="-5" font-family="Helvetica">0.006</text>
<text fill="#000000" x="69.8755" y="91.0801" font-size="10" text-anchor="end" baseline-shift="-5" font-family="Helvetica">0.008</text>
<text fill="#000000" x="69.8755" y="32.4" font-size="10" text-anchor="end" baseline-shift="-5" font-family="Helvetica">0.01</text>
<text fill="#000000" x="298.08" y="400.481" font-size="10" text-anchor="middle" baseline-shift="-10" font-family="Helvetica">tau</text>
<text fill="#000000" x="34.8755" y="208.44" font-size="10" transform="rotate(-90, 34.8755, 208.44)" text-anchor="middle" baseline-shift="0" font-family="Helvetica">autocorrelation</text>
<polyline fill="none" stroke="#0000ff" stroke-width="0.5" points="75.3264,43.998 75.7728,239.932 76.2192,383.019 76.6656,347.336 77.1121,366.949 77.5585,319.942 78.0049,268.632 78.4513,305.247 78.8977,340.599 79.344,323.102 79.7904,308.126 80.2368,311.662 80.6832,313.895 81.1296,329.992 81.576,328.962 82.0223,322.239 82.4688,320.896 82.9152,304.48 83.3616,319.822 83.808,342.213 84.2544,320.037 84.7009,305.881 85.1472,319.553 85.5936,326.144 86.04,333.457 86.4865,336.922 86.9329,326.979 87.3793,316.734 87.8256,321.575 88.272,330.883 88.7184,325.866 89.1648,324.796 89.6112,327.495 90.0576,324.215 90.504,332.985 90.9504,337.848 91.3969,332.425 91.8433,325.275 92.2897,311.485 92.7361,321.52 93.1825,341.679 93.6288,335.514 94.0752,332.841 94.5216,337.353 94.968,332.601 95.4144,333.196 95.8608,341.855 96.3071,340.246 96.7535,329.248 97.2,331.033 97.6465,335.009 98.0929,328.542 98.5393,334.356 98.9857,339.501 99.432,327.244 99.8784,323.346 100.325,325.358 100.771,318.721 101.218,317.66 101.664,325.035 102.11,325.662 102.557,323.377 103.003,326.567 103.45,324.504 103.896,323.954 104.342,329.072 104.789,329.617 105.235,325.791 105.682,319.886 106.128,319.141 106.574,322.456 107.021,324.234 107.467,329.236 107.914,332.168 108.36,324.65 108.806,315.85 109.253,316.94 109.699,322.702 110.146,325.402 110.592,324.501 111.038,324.597 111.485,323.653 111.931,319.208 112.378,326.697 112.824,331.941 113.271,321.641 113.717,321.912 114.163,326.003 114.61,318.542 115.056,322.184 115.502,329.86 115.949,321.517 116.395,314.659 116.842,327.45 117.288,332.763 117.734,322.874 118.181,329.832 118.627,330.143 119.074,319.68 119.52,323.063 119.966,325.635 120.413,324.086 120.859,322.543 121.306,326.941 121.752,332.076 122.198,330.247 122.645,327.013 123.091,323.779 123.538,326.486 123.984,329.552 124.43,325.082 124.877,330.65 125.323,326.915 125.77,323.195 126.216,335.167 126.662,325.418 127.109,327.595 127.555,333.422 128.002,315.632 128.448,322.627 128.894,330.485 129.341,326.062 129.787,333.513 130.234,335.563 130.68,328.263 131.126,326.829 131.573,329.278 132.019,319.21 132.466,319.125 132.912,332.672 133.358,331.612 133.805,330.526 134.251,332.191 134.698,315.899 135.144,309.442 135.59,321.938 136.037,324.728 136.483,332.744 136.93,332.187 137.376,323.385 137.822,319.022 138.269,319.282 138.715,324.57 139.162,322.573 139.608,329.046 140.054,322.85 140.501,311.435 140.947,330.032 141.394,325.125 141.84,315.358 142.286,333.109 142.733,326.694 143.179,323.237 143.626,335.353 144.072,329.064 144.518,322.811 144.965,328.444 145.411,328.326 145.858,315.966 146.304,317.009 146.75,332.736 147.197,334.272 147.643,329.66 148.09,323.357 148.536,319.225 148.982,322.279 149.429,321.437 149.875,325.34 150.322,331.357 150.768,323.552 151.214,322.433 151.661,336.728 152.107,334.045 152.554,324.06 153,331.258 153.446,329.059 153.893,317.523 154.339,328.269 154.786,337.091 155.232,325.882 155.678,330.919 156.125,337.144 156.571,324.535 157.018,320.296 157.464,317.349 157.91,318.035 158.357,326.772 158.803,329.929 159.25,335.662 159.696,336.339 160.142,329.197 160.589,325.115 161.035,329.678 161.482,331.113 161.928,326.651 162.374,329.619 162.821,326.309 163.267,317.098 163.714,324.842 164.16,335.18 164.606,331.55 165.053,326.199 165.499,322.916 165.946,321.12 166.392,323.02 166.839,326.213 167.285,327.325 167.731,329.866 168.178,334.073 168.624,331.524 169.07,324.71 169.517,322.004 169.963,324.427 170.41,327.55 170.856,327.39 171.302,330.102 171.749,330.381 172.195,323.549 172.642,320.303 173.088,320.429 173.534,324.123 173.981,329.51 174.427,326.642 174.874,326.134 175.32,329.17 175.766,325.945 176.213,327.677 176.659,327.994 177.106,322.84 177.552,326.316 177.998,327.357 178.445,327.436 178.891,335.007 179.338,330.369 179.784,321.589 180.23,320.5 180.677,320.467 181.123,323.184 181.57,329.491 182.016,333.495 182.462,329.369 182.909,325.341 183.355,320.546 183.802,315.506 184.248,318.068 184.694,322.98 185.141,331.615 185.587,335.792 186.034,330.108 186.48,328.011 186.927,322.875 187.373,317.509 187.819,325.941 188.266,330.438 188.712,328.185 189.158,331.397 189.605,328.636 190.051,325.421 190.498,326.209 190.944,323.672 191.39,323.811 191.837,322.138 192.283,321.401 192.73,328.355 193.176,328.021 193.622,325.092 194.069,329.956 194.515,330.244 194.962,325.466 195.408,326.921 195.854,330.533 196.301,328.127 196.747,328.985 197.194,328.892 197.64,322.384 198.086,325.657 198.533,331.286 198.979,333.416 199.426,332.614 199.872,323.408 200.318,324.359 200.765,332.377 201.211,328.889 201.658,330.462 202.104,336.541 202.55,325.507 202.997,322.467 203.443,337.116 203.89,339.75 204.336,335.328 204.782,333.757 205.229,325.842 205.675,321.073 206.122,332.317 206.568,339.676 207.014,335.968 207.461,333.605 207.907,326.183 208.354,326.525 208.8,329.921 209.246,321.857 209.693,324.607 210.139,328.433 210.586,326.842 211.032,334.838 211.478,336.226 211.925,327.988 212.371,326.963 212.818,328.387 213.264,328.48 213.71,329.493 214.157,325.839 214.603,326.634 215.05,331.667 215.496,330.325 215.942,329.395 216.389,330.425 216.835,327.987 217.282,326.075 217.728,330.615 218.174,332 218.621,326.73 219.067,326.276 219.514,328.572 219.96,326.96 220.406,324.742 220.853,329.448 221.299,327.333 221.746,319.732 222.192,323.072 222.638,325.997 223.085,323.152 223.531,322.932 223.978,324.295 224.424,322.679 224.87,326.344 225.317,329.525 225.763,323.015 226.21,324.157 226.656,328.811 227.102,323.7 227.549,325.766 227.995,324.751 228.442,316.821 228.888,321.715 229.334,328.986 229.781,329.633 230.227,331.721 230.674,330.249 231.12,323.102 231.566,323.991 232.013,324.943 232.459,320.149 232.906,325.144 233.352,330.151 233.798,329.195 234.245,334.433 234.691,335.765 235.138,329.055 235.584,326.186 236.03,321.47 236.477,317.769 236.923,325.086 237.37,329.447 237.816,329.408 238.262,329.348 238.709,328.398 239.155,327.522 239.602,322.573 240.048,319.465 240.494,323.572 240.941,322.615 241.387,322.483 241.834,329.302 242.28,328.44 242.726,329.489 243.173,330.662 243.619,325.556 244.066,326.242 244.512,328.412 244.958,328.065 245.405,330.215 245.851,328.914 246.298,322.076 246.744,322.504 247.19,328.539 247.637,324.728 248.083,322.398 248.53,326.505 248.976,324.529 249.422,325.353 249.869,330.501 250.315,332.074 250.762,326.495 251.208,322.114 251.654,325.285 252.101,324.019 252.547,323.46 252.994,323.51 253.44,322.309 253.886,326.698 254.333,325.011 254.779,321.733 255.226,321.518 255.672,321.636 256.118,327.057 256.565,329.425 257.011,326.208 257.458,323.73 257.904,322.691 258.35,322.091 258.797,325.704 259.243,331.366 259.69,327.42 260.136,324.502 260.582,328.261 261.029,325.396 261.475,326.978 261.922,333.182 262.368,327.442 262.814,322.63 263.261,322.325 263.707,324.775 264.154,330.389 264.6,324.113 265.046,319.071 265.493,323.97 265.939,324.818 266.386,323.678 266.832,325.565 267.278,327.614 267.725,327.974 268.171,327.018 268.618,326.916 269.064,326.55 269.51,325.689 269.957,328.502 270.403,327.142 270.85,319.692 271.296,319.562 271.742,320.277 272.189,315.998 272.635,320.273 273.082,328.344 273.528,325.065 273.974,323.013 274.421,324.324 274.867,316.624 275.314,318.544 275.76,324.555 276.206,324.206 276.653,329.319 277.099,329.598 277.546,322.811 277.992,320.741 278.438,324.519 278.885,327.264 279.331,328.211 279.778,327.164 280.224,320.863 280.67,317.405 281.117,318.121 281.563,317.213 282.01,321.743 282.456,326.409 282.902,321.135 283.349,323.954 283.795,331.708 284.242,326.78 284.688,325.549 285.134,326.037 285.581,319.412 286.027,323.919 286.474,327.883 286.92,323.23 287.366,327.299 287.813,321.667 288.259,313.38 288.706,325.487 289.152,330.119 289.599,326.169 290.045,326.012 290.491,316.165 290.938,312.285 291.384,330.091 291.83,340.345 292.277,332.234 292.723,325.927 293.17,320.951 293.616,322.092 294.062,334.439 294.509,336.948 294.955,325.73 295.402,325.188 295.848,331.451 296.294,329.101 296.741,333.094 297.187,331.677 297.634,317.962 298.08,323.582 298.526,336.738 298.973,331.733 299.419,326.414 299.866,322.557 300.312,312.564 300.758,323.234 301.205,346.264 301.651,343.33 302.098,328.707 302.544,321.362 302.99,316.88 303.437,322.255 303.883,328.803 304.33,328.268 304.776,330.193 305.222,329.783 305.669,323.044 306.115,323.141 306.562,325.302 307.008,322.19 307.454,326.082 307.901,329.893 308.347,330.016 308.794,333.118 309.24,329.823 309.687,324.33 310.133,327.835 310.579,327.431 311.026,321.775 311.472,324.954 311.918,328.537 312.365,326.78 312.811,328.575 313.258,330.273 313.704,327.394 314.15,321.978 314.597,320.946 315.043,324.926 315.49,326.615 315.936,326.381 316.382,326.677 316.829,324.639 317.275,320.729 317.722,321.531 318.168,324.089 318.614,325.556 319.061,326.936 319.507,325.415 319.954,324.845 320.4,324.966 320.846,323.912 321.293,327.022 321.739,329.559 322.186,328.102 322.632,327.71 323.078,325.757 323.525,322.492 323.971,323.87 324.418,328.482 324.864,327.255 325.31,321.034 325.757,322.803 326.203,326.375 326.65,326.345 327.096,328.716 327.542,325.172 327.989,322.261 328.435,325.389 328.882,326.059 329.328,327.524 329.774,326.207 330.221,319.685 330.667,315.446 331.114,319.318 331.56,323.665 332.006,322.685 332.453,328.098 332.899,326.578 333.346,319.188 333.792,324.793 334.238,321.75 334.685,318.137 335.131,332.231 335.578,328.663 336.024,318.745 336.47,326.516 336.917,322.99 337.363,314.395 337.81,326.233 338.256,331.565 338.702,319.782 339.149,324.555 339.595,329.518 340.042,318.481 340.488,323.684 340.934,329.26 341.381,323.745 341.827,331.097 342.274,331.176 342.72,318.074 343.167,319.185 343.613,326.127 344.059,328.9 344.506,332.39 344.952,327.017 345.398,322.293 345.845,323.228 346.291,317.706 346.738,323.747 347.184,337.312 347.63,322.653 348.077,309.804 348.523,326.059 348.97,334.254 349.416,336.011 349.862,334.067 350.309,307.621 350.755,298.322 351.202,324.134 351.648,337.149 352.094,342.415 352.541,343.755 352.987,319.209 353.434,314.33 353.88,324.311 354.326,316.485 354.773,328.763 355.219,344.387 355.666,328.74 356.112,320.872 356.558,328.304 357.005,321.28 357.451,318.763 357.898,328.998 358.344,326.966 358.79,326.15 359.237,331.569 359.683,325.37 360.13,322.231 360.576,327.106 361.022,327.611 361.469,324.579 361.915,323.093 362.362,324.546 362.808,325.358 363.254,324.542 363.701,321.86 364.147,318.199 364.594,321.325 365.04,328.472 365.486,329.556 365.933,326.426 366.379,323.753 366.826,319.886 367.272,323.894 367.718,331.004 368.165,329.306 368.611,328.652 369.058,327.78 369.504,324.315 369.95,327.895 370.397,328.881 370.843,321.431 371.29,320.432 371.736,326.145 372.182,326.919 372.629,328.036 373.075,326.44 373.522,319.575 373.968,323.852 374.414,329.871 374.861,326.802 375.307,326.079 375.754,325.656 376.2,322.203 376.646,319.849 377.093,323.053 377.539,330.13 377.986,329.528 378.432,323.418 378.878,325.468 379.325,330.838 379.771,330.762 380.218,328.23 380.664,324.686 381.11,321.374 381.557,323.808 382.003,331.531 382.45,331.672 382.896,324.759 383.342,323.697 383.789,326.298 384.235,326.134 384.682,324.401 385.128,325.507 385.574,325.017 386.021,322.247 386.467,327.096 386.914,326.409 387.36,318.633 387.806,325.638 388.253,330.946 388.699,324.168 389.146,322.66 389.592,321.917 390.038,319.008 390.485,323.736 390.931,330.748 391.378,327.605 391.824,322.154 392.271,323.336 392.717,324.103 393.163,326.513 393.61,330.544 394.056,327.211 394.502,323.077 394.949,325.349 395.395,330.243 395.842,331.665 396.288,327.82 396.734,323.5 397.181,323.222 397.627,326.574 398.074,327.377 398.52,326.703 398.966,326.716 399.413,319.962 399.859,316.631 400.306,325.458 400.752,329.493 401.198,328.373 401.645,332.301 402.091,329.151 402.538,322.2 402.984,324.528 403.43,325.227 403.877,324.941 404.323,335.133 404.77,336.993 405.216,325.925 405.662,323.353 406.109,323.594 406.555,322.457 407.002,329.946 407.448,333.631 407.894,331.54 408.341,332.372 408.787,328.22 409.234,327.208 409.68,332.624 410.126,330.682 410.573,329.721 411.019,329.531 411.466,321.429 411.912,321.438 412.359,328.277 412.805,324.499 413.251,320.466 413.698,327.845 414.144,330.994 414.59,329.889 415.037,330.719 415.483,320.328 415.93,316.087 416.376,328.329 416.822,331.177 417.269,328.482 417.715,331.981 418.162,330.02 418.608,323.452 419.054,320.799 419.501,326.968 419.947,333.902 420.394,324.942 420.84,313.703 421.286,322.939 421.733,335.949 422.179,331.956 422.626,327.894 423.072,322.402 423.518,308.004 423.965,315.492 424.411,334.568 424.858,326.884 425.304,316.586 425.75,325.194 426.197,326.53 426.643,318.953 427.09,321.442 427.536,324.374 427.982,316.857 428.429,315.99 428.875,324.959 429.322,326.724 429.768,322.168 430.214,323.292 430.661,330.118 431.107,327.445 431.554,319.521 432,323.122 432.447,318.908 432.893,310.568 433.339,324.94 433.786,334.977 434.232,327.331 434.678,329.903 435.125,334.479 435.571,323.535 436.018,314.897 436.464,320.454 436.91,322.19 437.357,316.297 437.803,324.409 438.25,330.339 438.696,320.733 439.142,321.032 439.589,326.715 440.035,323.928 440.482,324.359 440.928,327.727 441.374,325.276 441.821,323.143 442.267,326.521 442.714,328.846 443.16,324.649 443.606,321.341 444.053,324.203 444.499,323.347 444.946,322.958 445.392,327.472 445.839,327.384 446.285,326.981 446.731,329.134 447.178,329.9 447.624,325.446 448.07,322.124 448.517,324.362 448.963,324.287 449.41,325.273 449.856,327.856 450.302,328.073 450.749,326.95 451.195,325.474 451.642,326.675 452.088,323.545 452.534,318.709 452.981,322.936 453.427,326.066 453.874,322.074 454.32,320.58 454.766,325.271 455.213,328.825 455.659,325.719 456.106,322.969 456.552,324.851 456.998,327.102 457.445,330.649 457.891,332.135 458.338,325.059 458.784,318.03 459.23,320.985 459.677,325.104 460.123,324.288 460.57,327.734 461.016,333.827 461.462,332.717 461.909,326.276 462.355,320.85 462.802,319.436 463.248,319.275 463.694,321.217 464.141,329.629 464.587,328.119 465.034,320.991 465.48,329.019 465.927,330.448 466.373,320.453 466.819,322.773 467.266,325.42 467.712,324.194 468.158,330.477 468.605,328.89 469.051,319.12 469.498,323.323 469.944,329.437 470.39,324.714 470.837,323.408 471.283,324.057 471.73,321.505 472.176,324.774 472.622,328.877 473.069,327.632 473.515,325.733 473.962,324.746 474.408,330.287 474.854,335.157 475.301,331.263 475.747,329.373 476.194,325.545 476.64,318.67 477.086,323.446 477.533,330.847 477.979,326.117 478.426,323.871 478.872,329.688 479.318,327.645 479.765,326.218 480.211,328.868 480.658,325.491 481.104,324.222 481.55,329.611 481.997,328.002 482.443,321.749 482.89,325.083 483.336,331.086 483.782,329.373 484.229,329.588 484.675,332.381 485.122,324.781 485.568,317.942 486.014,323.78 486.461,325.992 486.907,326.544 487.354,330.742 487.8,328.748 488.246,326.82 488.693,324.999 489.139,318.924 489.586,324.56 490.032,333.714 490.478,328.719 490.925,329.167 491.371,332.302 491.818,324.312 492.264,325.71 492.71,333.329 493.157,326.329 493.603,319.547 494.05,319.546 494.496,317.867 494.943,321.511 495.389,328.005 495.835,329.897 496.282,329.222 496.728,326.112 497.174,324.029 497.621,323.466 498.067,322.138 498.514,324.819 498.96,325.729 499.406,323.345 499.853,325.756 500.299,327.328 500.746,322.08 501.192,319.953 501.638,327.007 502.085,329.366 502.531,324.616 502.978,322.502 503.424,318.865 503.87,317.4 504.317,323.669 504.763,330.399 505.21,330.974 505.656,328.1 506.102,327.73 506.549,326.5 506.995,324.333 507.442,325.52 507.888,325.35 508.334,321.358 508.781,319.959 509.227,326.859 509.674,333.398 510.12,329.84 510.566,323.42 511.013,320.375 511.459,318.057 511.906,319.262 512.352,326.936 512.798,329.711 513.245,327.028 513.691,328.986 514.138,330.404 514.584,325.151 515.031,320.906 515.477,324.951 515.923,331.561 516.37,334.05 516.816,331.303 517.262,326.502 517.709,324.082 518.155,324.675 518.602,325.879 519.048,326.547 519.494,328.513 519.941,330.342 520.387,329.139 520.834,326.397 521.28,327.407"/>
</g>
</svg>
