<?xml version="1.0" encoding="UTF-8" standalone="no"?>
<svg xmlns="http://www.w3.org/2000/svg"
     xmlns:xlink="http://www.w3.org/1999/xlink"
     width="576px" height="433px" viewBox="0 0 576 433">
<title>glps_renderer figure</title>
<desc>
Creator: GL2PS 1.3.9, (C) 1999-2015 C. Geuzaine
For: Octave
CreationDate: Tue Nov 22 22:18:48 2016
</desc>
<defs>
</defs>
<g shape-rendering="crispEdges">
<polygon fill="#ffffff" points="74.88,384.48 521.28,384.48 74.88,32.4"/>
<polygon fill="#ffffff" points="521.28,384.48 521.28,32.4 74.88,32.4"/>
<text fill="#000000" x="74.88" y="389.481" font-size="10" text-anchor="middle" baseline-shift="-10" font-family="Helvetica">0</text>
<text fill="#000000" x="164.16" y="389.481" font-size="10" text-anchor="middle" baseline-shift="-10" font-family="Helvetica">5</text>
<text fill="#000000" x="253.44" y="389.481" font-size="10" text-anchor="middle" baseline-shift="-10" font-family="Helvetica">10</text>
<text fill="#000000" x="342.72" y="389.481" font-size="10" text-anchor="middle" baseline-shift="-10" font-family="Helvetica">15</text>
<text fill="#000000" x="432" y="389.481" font-size="10" text-anchor="middle" baseline-shift="-10" font-family="Helvetica">20</text>
<text fill="#000000" x="521.28" y="389.481" font-size="10" text-anchor="middle" baseline-shift="-10" font-family="Helvetica">25</text>
<text fill="#000000" x="69.8755" y="384.48" font-size="10" text-anchor="end" baseline-shift="-5" font-family="Helvetica">-1e-07</text>
<text fill="#000000" x="69.8755" y="314.064" font-size="10" text-anchor="end" baseline-shift="-5" font-family="Helvetica">-5e-08</text>
<text fill="#000000" x="69.8755" y="243.648" font-size="10" text-anchor="end" baseline-shift="-5" font-family="Helvetica">0</text>
<text fill="#000000" x="69.8755" y="173.232" font-size="10" text-anchor="end" baseline-shift="-5" font-family="Helvetica">5e-08</text>
<text fill="#000000" x="69.8755" y="102.816" font-size="10" text-anchor="end" baseline-shift="-5" font-family="Helvetica">1e-07</text>
<text fill="#000000" x="69.8755" y="32.4" font-size="10" text-anchor="end" baseline-shift="-5" font-family="Helvetica">1.5e-07</text>
<text fill="#000000" x="298.08" y="400.481" font-size="10" text-anchor="middle" baseline-shift="-10" font-family="Helvetica">kHz</text>
<text fill="#000000" x="28.8755" y="208.44" font-size="10" transform="rotate(-90, 28.8755, 208.44)" text-anchor="middle" baseline-shift="0" font-family="Helvetica">Spectral Density</text>
<polyline fill="none" stroke="#000000" stroke-width="0.5" stroke-dasharray="16,0" points="74.88,384.48 521.28,384.48"/>
<polyline fill="none" stroke="#000000" stroke-width="0.5" stroke-dasharray="16,0" points="74.88,32.4 521.28,32.4"/>
<polyline fill="none" stroke="#000000" stroke-width="0.5" stroke-dasharray="16,0" points="74.88,384.48 74.88,32.4"/>
<polyline fill="none" stroke="#000000" stroke-width="0.5" stroke-dasharray="16,0" points="521.28,384.48 521.28,32.4"/>
<polyline fill="none" stroke="#000000" stroke-width="0.5" stroke-dasharray="16,0" points="74.88,384.48 74.88,380.015"/>
<polyline fill="none" stroke="#000000" stroke-width="0.5" stroke-dasharray="16,0" points="74.88,32.4 74.88,36.865"/>
<polyline fill="none" stroke="#000000" stroke-width="0.5" stroke-dasharray="16,0" points="164.16,384.48 164.16,380.015"/>
<polyline fill="none" stroke="#000000" stroke-width="0.5" stroke-dasharray="16,0" points="164.16,32.4 164.16,36.865"/>
<polyline fill="none" stroke="#000000" stroke-width="0.5" stroke-dasharray="16,0" points="253.44,384.48 253.44,380.015"/>
<polyline fill="none" stroke="#000000" stroke-width="0.5" stroke-dasharray="16,0" points="253.44,32.4 253.44,36.865"/>
<polyline fill="none" stroke="#000000" stroke-width="0.5" stroke-dasharray="16,0" points="342.72,384.48 342.72,380.015"/>
<polyline fill="none" stroke="#000000" stroke-width="0.5" stroke-dasharray="16,0" points="342.72,32.4 342.72,36.865"/>
<polyline fill="none" stroke="#000000" stroke-width="0.5" stroke-dasharray="16,0" points="432,384.48 432,380.015"/>
<polyline fill="none" stroke="#000000" stroke-width="0.5" stroke-dasharray="16,0" points="432,32.4 432,36.865"/>
<polyline fill="none" stroke="#000000" stroke-width="0.5" stroke-dasharray="16,0" points="521.28,384.48 521.28,380.015"/>
<polyline fill="none" stroke="#000000" stroke-width="0.5" stroke-dasharray="16,0" points="521.28,32.4 521.28,36.865"/>
<polyline fill="none" stroke="#000000" stroke-width="0.5" stroke-dasharray="16,0" points="74.88,384.48 79.348,384.48"/>
<polyline fill="none" stroke="#000000" stroke-width="0.5" stroke-dasharray="16,0" points="521.28,384.48 516.812,384.48"/>
<polyline fill="none" stroke="#000000" stroke-width="0.5" stroke-dasharray="16,0" points="74.88,314.064 79.348,314.064"/>
<polyline fill="none" stroke="#000000" stroke-width="0.5" stroke-dasharray="16,0" points="521.28,314.064 516.812,314.064"/>
<polyline fill="none" stroke="#000000" stroke-width="0.5" stroke-dasharray="16,0" points="74.88,243.648 79.348,243.648"/>
<polyline fill="none" stroke="#000000" stroke-width="0.5" stroke-dasharray="16,0" points="521.28,243.648 516.812,243.648"/>
<polyline fill="none" stroke="#000000" stroke-width="0.5" stroke-dasharray="16,0" points="74.88,173.232 79.348,173.232"/>
<polyline fill="none" stroke="#000000" stroke-width="0.5" stroke-dasharray="16,0" points="521.28,173.232 516.812,173.232"/>
<polyline fill="none" stroke="#000000" stroke-width="0.5" stroke-dasharray="16,0" points="74.88,102.816 79.348,102.816"/>
<polyline fill="none" stroke="#000000" stroke-width="0.5" stroke-dasharray="16,0" points="521.28,102.816 516.812,102.816"/>
<polyline fill="none" stroke="#000000" stroke-width="0.5" stroke-dasharray="16,0" points="74.88,32.4 79.348,32.4"/>
<polyline fill="none" stroke="#000000" stroke-width="0.5" stroke-dasharray="16,0" points="521.28,32.4 516.812,32.4"/>
<polygon fill="#00007f" points="78.2369,243.648 75.0943,339.528 75.0943,243.648"/>
<polygon fill="#00007f" points="75.0943,339.528 78.2369,243.648 78.2369,339.528"/>
<polygon fill="#00007f" points="82.1652,243.648 79.0226,358.723 79.0226,243.648"/>
<polygon fill="#00007f" points="79.0226,358.723 82.1652,243.648 82.1652,358.723"/>
<polygon fill="#00007f" points="86.0936,243.648 82.9509,321.368 82.9509,243.648"/>
<polygon fill="#00007f" points="82.9509,321.368 86.0936,243.648 86.0936,321.368"/>
<polygon fill="#00007f" points="90.0219,243.648 86.8792,341.15 86.8792,243.648"/>
<polygon fill="#00007f" points="86.8792,341.15 90.0219,243.648 90.0219,341.15"/>
<polygon fill="#00007f" points="93.9502,243.648 90.8075,340.116 90.8075,243.648"/>
<polygon fill="#00007f" points="90.8075,340.116 93.9502,243.648 93.9502,340.116"/>
<polygon fill="#00007f" points="97.8785,243.648 94.7359,316.363 94.7359,243.648"/>
<polygon fill="#00007f" points="94.7359,316.363 97.8785,243.648 97.8785,316.363"/>
<polygon fill="#00007f" points="101.807,243.648 98.6642,319.421 98.6642,243.648"/>
<polygon fill="#00007f" points="98.6642,319.421 101.807,243.648 101.807,319.421"/>
<polygon fill="#00007f" points="105.735,243.648 102.593,273.321 102.593,243.648"/>
<polygon fill="#00007f" points="102.593,273.321 105.735,243.648 105.735,273.321"/>
<polygon fill="#00007f" points="109.663,243.648 106.521,276.693 106.521,243.648"/>
<polygon fill="#00007f" points="106.521,276.693 109.663,243.648 109.663,276.693"/>
<polygon fill="#00007f" points="113.592,243.648 110.449,236.839 110.449,243.648"/>
<polygon fill="#00007f" points="110.449,236.839 113.592,243.648 113.592,236.839"/>
<polygon fill="#00007f" points="117.52,243.648 114.377,278.264 114.377,243.648"/>
<polygon fill="#00007f" points="114.377,278.264 117.52,243.648 117.52,278.264"/>
<polygon fill="#00007f" points="121.448,243.648 118.306,207.53 118.306,243.648"/>
<polygon fill="#00007f" points="118.306,207.53 121.448,243.648 121.448,207.53"/>
<polygon fill="#00007f" points="125.377,243.648 122.234,206.113 122.234,243.648"/>
<polygon fill="#00007f" points="122.234,206.113 125.377,243.648 125.377,206.113"/>
<polygon fill="#00007f" points="129.305,243.648 126.162,190.949 126.162,243.648"/>
<polygon fill="#00007f" points="126.162,190.949 129.305,243.648 129.305,190.949"/>
<polygon fill="#00007f" points="133.233,243.648 130.091,202.71 130.091,243.648"/>
<polygon fill="#00007f" points="130.091,202.71 133.233,243.648 133.233,202.71"/>
<polygon fill="#00007f" points="137.162,243.648 134.019,232.607 134.019,243.648"/>
<polygon fill="#00007f" points="134.019,232.607 137.162,243.648 137.162,232.607"/>
<polygon fill="#00007f" points="141.09,243.648 137.947,235.261 137.947,243.648"/>
<polygon fill="#00007f" points="137.947,235.261 141.09,243.648 141.09,235.261"/>
<polygon fill="#00007f" points="145.018,243.648 141.876,245.245 141.876,243.648"/>
<polygon fill="#00007f" points="141.876,245.245 145.018,243.648 145.018,245.245"/>
<polygon fill="#00007f" points="148.947,243.648 145.804,171.379 145.804,243.648"/>
<polygon fill="#00007f" points="145.804,171.379 148.947,243.648 148.947,171.379"/>
<polygon fill="#00007f" points="152.875,243.648 149.732,247.047 149.732,243.648"/>
<polygon fill="#00007f" points="149.732,247.047 152.875,243.648 152.875,247.047"/>
<polygon fill="#00007f" points="156.803,243.648 153.661,179.221 153.661,243.648"/>
<polygon fill="#00007f" points="153.661,179.221 156.803,243.648 156.803,179.221"/>
<polygon fill="#00007f" points="160.732,243.648 157.589,217.916 157.589,243.648"/>
<polygon fill="#00007f" points="157.589,217.916 160.732,243.648 160.732,217.916"/>
<polygon fill="#00007f" points="164.66,243.648 161.517,270.118 161.517,243.648"/>
<polygon fill="#00007f" points="161.517,270.118 164.66,243.648 164.66,270.118"/>
<polygon fill="#00007f" points="168.588,243.648 165.446,278.717 165.446,243.648"/>
<polygon fill="#00007f" points="165.446,278.717 168.588,243.648 168.588,278.717"/>
<polygon fill="#00007f" points="172.517,243.648 169.374,239.587 169.374,243.648"/>
<polygon fill="#00007f" points="169.374,239.587 172.517,243.648 172.517,239.587"/>
<polygon fill="#00007f" points="176.445,243.648 173.302,223.727 173.302,243.648"/>
<polygon fill="#00007f" points="173.302,223.727 176.445,243.648 176.445,223.727"/>
<polygon fill="#00007f" points="180.373,243.648 177.231,199.443 177.231,243.648"/>
<polygon fill="#00007f" points="177.231,199.443 180.373,243.648 180.373,199.443"/>
<polygon fill="#00007f" points="184.302,243.648 181.159,129.436 181.159,243.648"/>
<polygon fill="#00007f" points="181.159,129.436 184.302,243.648 184.302,129.436"/>
<polygon fill="#00007f" points="188.23,243.648 185.087,174.958 185.087,243.648"/>
<polygon fill="#00007f" points="185.087,174.958 188.23,243.648 188.23,174.958"/>
<polygon fill="#00007f" points="192.158,243.648 189.016,131.83 189.016,243.648"/>
<polygon fill="#00007f" points="189.016,131.83 192.158,243.648 192.158,131.83"/>
<polygon fill="#00007f" points="196.087,243.648 192.944,181.332 192.944,243.648"/>
<polygon fill="#00007f" points="192.944,181.332 196.087,243.648 196.087,181.332"/>
<polygon fill="#00007f" points="200.015,243.648 196.872,223.814 196.872,243.648"/>
<polygon fill="#00007f" points="196.872,223.814 200.015,243.648 200.015,223.814"/>
<polygon fill="#00007f" points="203.943,243.648 200.801,130.503 200.801,243.648"/>
<polygon fill="#00007f" points="200.801,130.503 203.943,243.648 203.943,130.503"/>
<polygon fill="#00007f" points="207.871,243.648 204.729,171.296 204.729,243.648"/>
<polygon fill="#00007f" points="204.729,171.296 207.871,243.648 207.871,171.296"/>
<polygon fill="#00007f" points="211.8,243.648 208.657,239.611 208.657,243.648"/>
<polygon fill="#00007f" points="208.657,239.611 211.8,243.648 211.8,239.611"/>
<polygon fill="#00007f" points="215.728,243.648 212.585,229.648 212.585,243.648"/>
<polygon fill="#00007f" points="212.585,229.648 215.728,243.648 215.728,229.648"/>
<polygon fill="#00007f" points="219.656,243.648 216.514,183.114 216.514,243.648"/>
<polygon fill="#00007f" points="216.514,183.114 219.656,243.648 219.656,183.114"/>
<polygon fill="#00007f" points="223.585,243.648 220.442,269.762 220.442,243.648"/>
<polygon fill="#00007f" points="220.442,269.762 223.585,243.648 223.585,269.762"/>
<polygon fill="#00007f" points="227.513,243.648 224.37,278.844 224.37,243.648"/>
<polygon fill="#00007f" points="224.37,278.844 227.513,243.648 227.513,278.844"/>
<polygon fill="#00007f" points="231.441,243.648 228.299,241.021 228.299,243.648"/>
<polygon fill="#00007f" points="228.299,241.021 231.441,243.648 231.441,241.021"/>
<polygon fill="#00007f" points="235.37,243.648 232.227,241.889 232.227,243.648"/>
<polygon fill="#00007f" points="232.227,241.889 235.37,243.648 235.37,241.889"/>
<polygon fill="#00007f" points="239.298,243.648 236.155,229.019 236.155,243.648"/>
<polygon fill="#00007f" points="236.155,229.019 239.298,243.648 239.298,229.019"/>
<polygon fill="#00007f" points="243.226,243.648 240.084,241.395 240.084,243.648"/>
<polygon fill="#00007f" points="240.084,241.395 243.226,243.648 243.226,241.395"/>
<polygon fill="#00007f" points="247.155,243.648 244.012,279.91 244.012,243.648"/>
<polygon fill="#00007f" points="244.012,279.91 247.155,243.648 247.155,279.91"/>
<polygon fill="#00007f" points="251.083,243.648 247.94,278.194 247.94,243.648"/>
<polygon fill="#00007f" points="247.94,278.194 251.083,243.648 251.083,278.194"/>
<polygon fill="#00007f" points="255.011,243.648 251.869,304.374 251.869,243.648"/>
<polygon fill="#00007f" points="251.869,304.374 255.011,243.648 255.011,304.374"/>
<polygon fill="#00007f" points="258.94,243.648 255.797,317.055 255.797,243.648"/>
<polygon fill="#00007f" points="255.797,317.055 258.94,243.648 258.94,317.055"/>
<polygon fill="#00007f" points="262.868,243.648 259.725,317.721 259.725,243.648"/>
<polygon fill="#00007f" points="259.725,317.721 262.868,243.648 262.868,317.721"/>
<polygon fill="#00007f" points="266.796,243.648 263.654,320.911 263.654,243.648"/>
<polygon fill="#00007f" points="263.654,320.911 266.796,243.648 266.796,320.911"/>
<polygon fill="#00007f" points="270.725,243.648 267.582,284.053 267.582,243.648"/>
<polygon fill="#00007f" points="267.582,284.053 270.725,243.648 270.725,284.053"/>
<polygon fill="#00007f" points="274.653,243.648 271.51,286.376 271.51,243.648"/>
<polygon fill="#00007f" points="271.51,286.376 274.653,243.648 274.653,286.376"/>
<polygon fill="#00007f" points="278.581,243.648 275.439,213.917 275.439,243.648"/>
<polygon fill="#00007f" points="275.439,213.917 278.581,243.648 278.581,213.917"/>
<polygon fill="#00007f" points="282.51,243.648 279.367,259.861 279.367,243.648"/>
<polygon fill="#00007f" points="279.367,259.861 282.51,243.648 282.51,259.861"/>
<polygon fill="#00007f" points="286.438,243.648 283.295,224.852 283.295,243.648"/>
<polygon fill="#00007f" points="283.295,224.852 286.438,243.648 286.438,224.852"/>
<polygon fill="#00007f" points="290.366,243.648 287.224,253.952 287.224,243.648"/>
<polygon fill="#00007f" points="287.224,253.952 290.366,243.648 290.366,253.952"/>
<polygon fill="#00007f" points="294.295,243.648 291.152,199.231 291.152,243.648"/>
<polygon fill="#00007f" points="291.152,199.231 294.295,243.648 294.295,199.231"/>
<polygon fill="#00007f" points="298.223,243.648 295.08,238.607 295.08,243.648"/>
<polygon fill="#00007f" points="295.08,238.607 298.223,243.648 298.223,238.607"/>
<polygon fill="#00007f" points="302.151,243.648 299.008,247.647 299.008,243.648"/>
<polygon fill="#00007f" points="299.008,247.647 302.151,243.648 302.151,247.647"/>
<polygon fill="#00007f" points="306.079,243.648 302.937,225.005 302.937,243.648"/>
<polygon fill="#00007f" points="302.937,225.005 306.079,243.648 306.079,225.005"/>
<polygon fill="#00007f" points="310.008,243.648 306.865,164.252 306.865,243.648"/>
<polygon fill="#00007f" points="306.865,164.252 310.008,243.648 310.008,164.252"/>
<polygon fill="#00007f" points="313.936,243.648 310.793,172.807 310.793,243.648"/>
<polygon fill="#00007f" points="310.793,172.807 313.936,243.648 313.936,172.807"/>
<polygon fill="#00007f" points="317.864,243.648 314.722,177.884 314.722,243.648"/>
<polygon fill="#00007f" points="314.722,177.884 317.864,243.648 317.864,177.884"/>
<polygon fill="#00007f" points="321.793,243.648 318.65,146.453 318.65,243.648"/>
<polygon fill="#00007f" points="318.65,146.453 321.793,243.648 321.793,146.453"/>
<polygon fill="#00007f" points="325.721,243.648 322.578,78.357 322.578,243.648"/>
<polygon fill="#00007f" points="322.578,78.357 325.721,243.648 325.721,78.357"/>
<polygon fill="#00007f" points="329.649,243.648 326.507,151.818 326.507,243.648"/>
<polygon fill="#00007f" points="326.507,151.818 329.649,243.648 329.649,151.818"/>
<polygon fill="#00007f" points="333.578,243.648 330.435,160.233 330.435,243.648"/>
<polygon fill="#00007f" points="330.435,160.233 333.578,243.648 333.578,160.233"/>
<polygon fill="#00007f" points="337.506,243.648 334.363,169.413 334.363,243.648"/>
<polygon fill="#00007f" points="334.363,169.413 337.506,243.648 337.506,169.413"/>
<polygon fill="#00007f" points="341.434,243.648 338.292,159.173 338.292,243.648"/>
<polygon fill="#00007f" points="338.292,159.173 341.434,243.648 341.434,159.173"/>
<polygon fill="#00007f" points="345.363,243.648 342.22,214.344 342.22,243.648"/>
<polygon fill="#00007f" points="342.22,214.344 345.363,243.648 345.363,214.344"/>
<polygon fill="#00007f" points="349.291,243.648 346.148,194.341 346.148,243.648"/>
<polygon fill="#00007f" points="346.148,194.341 349.291,243.648 349.291,194.341"/>
<polygon fill="#00007f" points="353.219,243.648 350.077,224.966 350.077,243.648"/>
<polygon fill="#00007f" points="350.077,224.966 353.219,243.648 353.219,224.966"/>
<polygon fill="#00007f" points="357.148,243.648 354.005,218.861 354.005,243.648"/>
<polygon fill="#00007f" points="354.005,218.861 357.148,243.648 357.148,218.861"/>
<polygon fill="#00007f" points="361.076,243.648 357.933,215.463 357.933,243.648"/>
<polygon fill="#00007f" points="357.933,215.463 361.076,243.648 361.076,215.463"/>
<polygon fill="#00007f" points="365.004,243.648 361.862,226.585 361.862,243.648"/>
<polygon fill="#00007f" points="361.862,226.585 365.004,243.648 365.004,226.585"/>
<polygon fill="#00007f" points="368.933,243.648 365.79,223.476 365.79,243.648"/>
<polygon fill="#00007f" points="365.79,223.476 368.933,243.648 368.933,223.476"/>
<polygon fill="#00007f" points="372.861,243.648 369.718,204.613 369.718,243.648"/>
<polygon fill="#00007f" points="369.718,204.613 372.861,243.648 372.861,204.613"/>
<polygon fill="#00007f" points="376.789,243.648 373.647,244.237 373.647,243.648"/>
<polygon fill="#00007f" points="373.647,244.237 376.789,243.648 376.789,244.237"/>
<polygon fill="#00007f" points="380.718,243.648 377.575,195.625 377.575,243.648"/>
<polygon fill="#00007f" points="377.575,195.625 380.718,243.648 380.718,195.625"/>
<polygon fill="#00007f" points="384.646,243.648 381.503,247.468 381.503,243.648"/>
<polygon fill="#00007f" points="381.503,247.468 384.646,243.648 384.646,247.468"/>
<polygon fill="#00007f" points="388.574,243.648 385.432,247.915 385.432,243.648"/>
<polygon fill="#00007f" points="385.432,247.915 388.574,243.648 388.574,247.915"/>
<polygon fill="#00007f" points="392.503,243.648 389.36,265.48 389.36,243.648"/>
<polygon fill="#00007f" points="389.36,265.48 392.503,243.648 392.503,265.48"/>
<polygon fill="#00007f" points="396.431,243.648 393.288,275.329 393.288,243.648"/>
<polygon fill="#00007f" points="393.288,275.329 396.431,243.648 396.431,275.329"/>
<polygon fill="#00007f" points="400.359,243.648 397.216,290.998 397.216,243.648"/>
<polygon fill="#00007f" points="397.216,290.998 400.359,243.648 400.359,290.998"/>
<polygon fill="#00007f" points="404.287,243.648 401.145,280.707 401.145,243.648"/>
<polygon fill="#00007f" points="401.145,280.707 404.287,243.648 404.287,280.707"/>
<polygon fill="#00007f" points="408.216,243.648 405.073,289.286 405.073,243.648"/>
<polygon fill="#00007f" points="405.073,289.286 408.216,243.648 408.216,289.286"/>
<polygon fill="#00007f" points="412.144,243.648 409.001,278.088 409.001,243.648"/>
<polygon fill="#00007f" points="409.001,278.088 412.144,243.648 412.144,278.088"/>
<polygon fill="#00007f" points="416.072,243.648 412.93,284.38 412.93,243.648"/>
<polygon fill="#00007f" points="412.93,284.38 416.072,243.648 416.072,284.38"/>
<polygon fill="#00007f" points="420.001,243.648 416.858,300.763 416.858,243.648"/>
<polygon fill="#00007f" points="416.858,300.763 420.001,243.648 420.001,300.763"/>
<polygon fill="#00007f" points="423.929,243.648 420.786,310.557 420.786,243.648"/>
<polygon fill="#00007f" points="420.786,310.557 423.929,243.648 423.929,310.557"/>
<polygon fill="#00007f" points="427.857,243.648 424.715,321.156 424.715,243.648"/>
<polygon fill="#00007f" points="424.715,321.156 427.857,243.648 427.857,321.156"/>
<polygon fill="#00007f" points="431.786,243.648 428.643,321.553 428.643,243.648"/>
<polygon fill="#00007f" points="428.643,321.553 431.786,243.648 431.786,321.553"/>
<polygon fill="#00007f" points="435.714,243.648 432.571,307.411 432.571,243.648"/>
<polygon fill="#00007f" points="432.571,307.411 435.714,243.648 435.714,307.411"/>
<polygon fill="#00007f" points="439.642,243.648 436.5,297.17 436.5,243.648"/>
<polygon fill="#00007f" points="436.5,297.17 439.642,243.648 439.642,297.17"/>
<polygon fill="#00007f" points="443.571,243.648 440.428,288.23 440.428,243.648"/>
<polygon fill="#00007f" points="440.428,288.23 443.571,243.648 443.571,288.23"/>
<polygon fill="#00007f" points="447.499,243.648 444.356,287.938 444.356,243.648"/>
<polygon fill="#00007f" points="444.356,287.938 447.499,243.648 447.499,287.938"/>
<polygon fill="#00007f" points="451.427,243.648 448.285,287.677 448.285,243.648"/>
<polygon fill="#00007f" points="448.285,287.677 451.427,243.648 451.427,287.677"/>
<polygon fill="#00007f" points="455.356,243.648 452.213,238.656 452.213,243.648"/>
<polygon fill="#00007f" points="452.213,238.656 455.356,243.648 455.356,238.656"/>
<polygon fill="#00007f" points="459.284,243.648 456.141,253.892 456.141,243.648"/>
<polygon fill="#00007f" points="456.141,253.892 459.284,243.648 459.284,253.892"/>
<polygon fill="#00007f" points="463.212,243.648 460.07,280.986 460.07,243.648"/>
<polygon fill="#00007f" points="460.07,280.986 463.212,243.648 463.212,280.986"/>
<polyline fill="none" stroke="#000000" stroke-width="0.5" points="78.2369,339.528 75.0943,339.528 75.0943,243.648 78.2369,243.648 78.2369,339.528"/>
<polyline fill="none" stroke="#000000" stroke-width="0.5" points="82.1652,358.723 79.0226,358.723 79.0226,243.648 82.1652,243.648 82.1652,358.723"/>
<polyline fill="none" stroke="#000000" stroke-width="0.5" points="86.0936,321.368 82.9509,321.368 82.9509,243.648 86.0936,243.648 86.0936,321.368"/>
<polyline fill="none" stroke="#000000" stroke-width="0.5" points="90.0219,341.15 86.8792,341.15 86.8792,243.648 90.0219,243.648 90.0219,341.15"/>
<polyline fill="none" stroke="#000000" stroke-width="0.5" points="93.9502,340.116 90.8075,340.116 90.8075,243.648 93.9502,243.648 93.9502,340.116"/>
<polyline fill="none" stroke="#000000" stroke-width="0.5" points="97.8785,316.363 94.7359,316.363 94.7359,243.648 97.8785,243.648 97.8785,316.363"/>
<polyline fill="none" stroke="#000000" stroke-width="0.5" points="101.807,319.421 98.6642,319.421 98.6642,243.648 101.807,243.648 101.807,319.421"/>
<polyline fill="none" stroke="#000000" stroke-width="0.5" points="105.735,273.321 102.593,273.321 102.593,243.648 105.735,243.648 105.735,273.321"/>
<polyline fill="none" stroke="#000000" stroke-width="0.5" points="109.663,276.693 106.521,276.693 106.521,243.648 109.663,243.648 109.663,276.693"/>
<polyline fill="none" stroke="#000000" stroke-width="0.5" points="113.592,236.839 110.449,236.839 110.449,243.648 113.592,243.648 113.592,236.839"/>
<polyline fill="none" stroke="#000000" stroke-width="0.5" points="117.52,278.264 114.377,278.264 114.377,243.648 117.52,243.648 117.52,278.264"/>
<polyline fill="none" stroke="#000000" stroke-width="0.5" points="121.448,207.53 118.306,207.53 118.306,243.648 121.448,243.648 121.448,207.53"/>
<polyline fill="none" stroke="#000000" stroke-width="0.5" points="125.377,206.113 122.234,206.113 122.234,243.648 125.377,243.648 125.377,206.113"/>
<polyline fill="none" stroke="#000000" stroke-width="0.5" points="129.305,190.949 126.162,190.949 126.162,243.648 129.305,243.648 129.305,190.949"/>
<polyline fill="none" stroke="#000000" stroke-width="0.5" points="133.233,202.71 130.091,202.71 130.091,243.648 133.233,243.648 133.233,202.71"/>
<polyline fill="none" stroke="#000000" stroke-width="0.5" points="137.162,232.607 134.019,232.607 134.019,243.648 137.162,243.648 137.162,232.607"/>
<polyline fill="none" stroke="#000000" stroke-width="0.5" points="141.09,235.261 137.947,235.261 137.947,243.648 141.09,243.648 141.09,235.261"/>
<polyline fill="none" stroke="#000000" stroke-width="0.5" points="145.018,245.245 141.876,245.245 141.876,243.648 145.018,243.648 145.018,245.245"/>
<polyline fill="none" stroke="#000000" stroke-width="0.5" points="148.947,171.379 145.804,171.379 145.804,243.648 148.947,243.648 148.947,171.379"/>
<polyline fill="none" stroke="#000000" stroke-width="0.5" points="152.875,247.047 149.732,247.047 149.732,243.648 152.875,243.648 152.875,247.047"/>
<polyline fill="none" stroke="#000000" stroke-width="0.5" points="156.803,179.221 153.661,179.221 153.661,243.648 156.803,243.648 156.803,179.221"/>
<polyline fill="none" stroke="#000000" stroke-width="0.5" points="160.732,217.916 157.589,217.916 157.589,243.648 160.732,243.648 160.732,217.916"/>
<polyline fill="none" stroke="#000000" stroke-width="0.5" points="164.66,270.118 161.517,270.118 161.517,243.648 164.66,243.648 164.66,270.118"/>
<polyline fill="none" stroke="#000000" stroke-width="0.5" points="168.588,278.717 165.446,278.717 165.446,243.648 168.588,243.648 168.588,278.717"/>
<polyline fill="none" stroke="#000000" stroke-width="0.5" points="172.517,239.587 169.374,239.587 169.374,243.648 172.517,243.648 172.517,239.587"/>
<polyline fill="none" stroke="#000000" stroke-width="0.5" points="176.445,223.727 173.302,223.727 173.302,243.648 176.445,243.648 176.445,223.727"/>
<polyline fill="none" stroke="#000000" stroke-width="0.5" points="180.373,199.443 177.231,199.443 177.231,243.648 180.373,243.648 180.373,199.443"/>
<polyline fill="none" stroke="#000000" stroke-width="0.5" points="184.302,129.436 181.159,129.436 181.159,243.648 184.302,243.648 184.302,129.436"/>
<polyline fill="none" stroke="#000000" stroke-width="0.5" points="188.23,174.958 185.087,174.958 185.087,243.648 188.23,243.648 188.23,174.958"/>
<polyline fill="none" stroke="#000000" stroke-width="0.5" points="192.158,131.83 189.016,131.83 189.016,243.648 192.158,243.648 192.158,131.83"/>
<polyline fill="none" stroke="#000000" stroke-width="0.5" points="196.087,181.332 192.944,181.332 192.944,243.648 196.087,243.648 196.087,181.332"/>
<polyline fill="none" stroke="#000000" stroke-width="0.5" points="200.015,223.814 196.872,223.814 196.872,243.648 200.015,243.648 200.015,223.814"/>
<polyline fill="none" stroke="#000000" stroke-width="0.5" points="203.943,130.503 200.801,130.503 200.801,243.648 203.943,243.648 203.943,130.503"/>
<polyline fill="none" stroke="#000000" stroke-width="0.5" points="207.871,171.296 204.729,171.296 204.729,243.648 207.871,243.648 207.871,171.296"/>
<polyline fill="none" stroke="#000000" stroke-width="0.5" points="211.8,239.611 208.657,239.611 208.657,243.648 211.8,243.648 211.8,239.611"/>
<polyline fill="none" stroke="#000000" stroke-width="0.5" points="215.728,229.648 212.585,229.648 212.585,243.648 215.728,243.648 215.728,229.648"/>
<polyline fill="none" stroke="#000000" stroke-width="0.5" points="219.656,183.114 216.514,183.114 216.514,243.648 219.656,243.648 219.656,183.114"/>
<polyline fill="none" stroke="#000000" stroke-width="0.5" points="223.585,269.762 220.442,269.762 220.442,243.648 223.585,243.648 223.585,269.762"/>
<polyline fill="none" stroke="#000000" stroke-width="0.5" points="227.513,278.844 224.37,278.844 224.37,243.648 227.513,243.648 227.513,278.844"/>
<polyline fill="none" stroke="#000000" stroke-width="0.5" points="231.441,241.021 228.299,241.021 228.299,243.648 231.441,243.648 231.441,241.021"/>
<polyline fill="none" stroke="#000000" stroke-width="0.5" points="235.37,241.889 232.227,241.889 232.227,243.648 235.37,243.648 235.37,241.889"/>
<polyline fill="none" stroke="#000000" stroke-width="0.5" points="239.298,229.019 236.155,229.019 236.155,243.648 239.298,243.648 239.298,229.019"/>
<polyline fill="none" stroke="#000000" stroke-width="0.5" points="243.226,241.395 240.084,241.395 240.084,243.648 243.226,243.648 243.226,241.395"/>
<polyline fill="none" stroke="#000000" stroke-width="0.5" points="247.155,279.91 244.012,279.91 244.012,243.648 247.155,243.648 247.155,279.91"/>
<polyline fill="none" stroke="#000000" stroke-width="0.5" points="251.083,278.194 247.94,278.194 247.94,243.648 251.083,243.648 251.083,278.194"/>
<polyline fill="none" stroke="#000000" stroke-width="0.5" points="255.011,304.374 251.869,304.374 251.869,243.648 255.011,243.648 255.011,304.374"/>
<polyline fill="none" stroke="#000000" stroke-width="0.5" points="258.94,317.055 255.797,317.055 255.797,243.648 258.94,243.648 258.94,317.055"/>
<polyline fill="none" stroke="#000000" stroke-width="0.5" points="262.868,317.721 259.725,317.721 259.725,243.648 262.868,243.648 262.868,317.721"/>
<polyline fill="none" stroke="#000000" stroke-width="0.5" points="266.796,320.911 263.654,320.911 263.654,243.648 266.796,243.648 266.796,320.911"/>
<polyline fill="none" stroke="#000000" stroke-width="0.5" points="270.725,284.053 267.582,284.053 267.582,243.648 270.725,243.648 270.725,284.053"/>
<polyline fill="none" stroke="#000000" stroke-width="0.5" points="274.653,286.376 271.51,286.376 271.51,243.648 274.653,243.648 274.653,286.376"/>
<polyline fill="none" stroke="#000000" stroke-width="0.5" points="278.581,213.917 275.439,213.917 275.439,243.648 278.581,243.648 278.581,213.917"/>
<polyline fill="none" stroke="#000000" stroke-width="0.5" points="282.51,259.861 279.367,259.861 279.367,243.648 282.51,243.648 282.51,259.861"/>
<polyline fill="none" stroke="#000000" stroke-width="0.5" points="286.438,224.852 283.295,224.852 283.295,243.648 286.438,243.648 286.438,224.852"/>
<polyline fill="none" stroke="#000000" stroke-width="0.5" points="290.366,253.952 287.224,253.952 287.224,243.648 290.366,243.648 290.366,253.952"/>
<polyline fill="none" stroke="#000000" stroke-width="0.5" points="294.295,199.231 291.152,199.231 291.152,243.648 294.295,243.648 294.295,199.231"/>
<polyline fill="none" stroke="#000000" stroke-width="0.5" points="298.223,238.607 295.08,238.607 295.08,243.648 298.223,243.648 298.223,238.607"/>
<polyline fill="none" stroke="#000000" stroke-width="0.5" points="302.151,247.647 299.008,247.647 299.008,243.648 302.151,243.648 302.151,247.647"/>
<polyline fill="none" stroke="#000000" stroke-width="0.5" points="306.079,225.005 302.937,225.005 302.937,243.648 306.079,243.648 306.079,225.005"/>
<polyline fill="none" stroke="#000000" stroke-width="0.5" points="310.008,164.252 306.865,164.252 306.865,243.648 310.008,243.648 310.008,164.252"/>
<polyline fill="none" stroke="#000000" stroke-width="0.5" points="313.936,172.807 310.793,172.807 310.793,243.648 313.936,243.648 313.936,172.807"/>
<polyline fill="none" stroke="#000000" stroke-width="0.5" points="317.864,177.884 314.722,177.884 314.722,243.648 317.864,243.648 317.864,177.884"/>
<polyline fill="none" stroke="#000000" stroke-width="0.5" points="321.793,146.453 318.65,146.453 318.65,243.648 321.793,243.648 321.793,146.453"/>
<polyline fill="none" stroke="#000000" stroke-width="0.5" points="325.721,78.357 322.578,78.357 322.578,243.648 325.721,243.648 325.721,78.357"/>
<polyline fill="none" stroke="#000000" stroke-width="0.5" points="329.649,151.818 326.507,151.818 326.507,243.648 329.649,243.648 329.649,151.818"/>
<polyline fill="none" stroke="#000000" stroke-width="0.5" points="333.578,160.233 330.435,160.233 330.435,243.648 333.578,243.648 333.578,160.233"/>
<polyline fill="none" stroke="#000000" stroke-width="0.5" points="337.506,169.413 334.363,169.413 334.363,243.648 337.506,243.648 337.506,169.413"/>
<polyline fill="none" stroke="#000000" stroke-width="0.5" points="341.434,159.173 338.292,159.173 338.292,243.648 341.434,243.648 341.434,159.173"/>
<polyline fill="none" stroke="#000000" stroke-width="0.5" points="345.363,214.344 342.22,214.344 342.22,243.648 345.363,243.648 345.363,214.344"/>
<polyline fill="none" stroke="#000000" stroke-width="0.5" points="349.291,194.341 346.148,194.341 346.148,243.648 349.291,243.648 349.291,194.341"/>
<polyline fill="none" stroke="#000000" stroke-width="0.5" points="353.219,224.966 350.077,224.966 350.077,243.648 353.219,243.648 353.219,224.966"/>
<polyline fill="none" stroke="#000000" stroke-width="0.5" points="357.148,218.861 354.005,218.861 354.005,243.648 357.148,243.648 357.148,218.861"/>
<polyline fill="none" stroke="#000000" stroke-width="0.5" points="361.076,215.463 357.933,215.463 357.933,243.648 361.076,243.648 361.076,215.463"/>
<polyline fill="none" stroke="#000000" stroke-width="0.5" points="365.004,226.585 361.862,226.585 361.862,243.648 365.004,243.648 365.004,226.585"/>
<polyline fill="none" stroke="#000000" stroke-width="0.5" points="368.933,223.476 365.79,223.476 365.79,243.648 368.933,243.648 368.933,223.476"/>
<polyline fill="none" stroke="#000000" stroke-width="0.5" points="372.861,204.613 369.718,204.613 369.718,243.648 372.861,243.648 372.861,204.613"/>
<polyline fill="none" stroke="#000000" stroke-width="0.5" points="376.789,244.237 373.647,244.237 373.647,243.648 376.789,243.648 376.789,244.237"/>
<polyline fill="none" stroke="#000000" stroke-width="0.5" points="380.718,195.625 377.575,195.625 377.575,243.648 380.718,243.648 380.718,195.625"/>
<polyline fill="none" stroke="#000000" stroke-width="0.5" points="384.646,247.468 381.503,247.468 381.503,243.648 384.646,243.648 384.646,247.468"/>
<polyline fill="none" stroke="#000000" stroke-width="0.5" points="388.574,247.915 385.432,247.915 385.432,243.648 388.574,243.648 388.574,247.915"/>
<polyline fill="none" stroke="#000000" stroke-width="0.5" points="392.503,265.48 389.36,265.48 389.36,243.648 392.503,243.648 392.503,265.48"/>
<polyline fill="none" stroke="#000000" stroke-width="0.5" points="396.431,275.329 393.288,275.329 393.288,243.648 396.431,243.648 396.431,275.329"/>
<polyline fill="none" stroke="#000000" stroke-width="0.5" points="400.359,290.998 397.216,290.998 397.216,243.648 400.359,243.648 400.359,290.998"/>
<polyline fill="none" stroke="#000000" stroke-width="0.5" points="404.287,280.707 401.145,280.707 401.145,243.648 404.287,243.648 404.287,280.707"/>
<polyline fill="none" stroke="#000000" stroke-width="0.5" points="408.216,289.286 405.073,289.286 405.073,243.648 408.216,243.648 408.216,289.286"/>
<polyline fill="none" stroke="#000000" stroke-width="0.5" points="412.144,278.088 409.001,278.088 409.001,243.648 412.144,243.648 412.144,278.088"/>
<polyline fill="none" stroke="#000000" stroke-width="0.5" points="416.072,284.38 412.93,284.38 412.93,243.648 416.072,243.648 416.072,284.38"/>
<polyline fill="none" stroke="#000000" stroke-width="0.5" points="420.001,300.763 416.858,300.763 416.858,243.648 420.001,243.648 420.001,300.763"/>
<polyline fill="none" stroke="#000000" stroke-width="0.5" points="423.929,310.557 420.786,310.557 420.786,243.648 423.929,243.648 423.929,310.557"/>
<polyline fill="none" stroke="#000000" stroke-width="0.5" points="427.857,321.156 424.715,321.156 424.715,243.648 427.857,243.648 427.857,321.156"/>
<polyline fill="none" stroke="#000000" stroke-width="0.5" points="431.786,321.553 428.643,321.553 428.643,243.648 431.786,243.648 431.786,321.553"/>
<polyline fill="none" stroke="#000000" stroke-width="0.5" points="435.714,307.411 432.571,307.411 432.571,243.648 435.714,243.648 435.714,307.411"/>
<polyline fill="none" stroke="#000000" stroke-width="0.5" points="439.642,297.17 436.5,297.17 436.5,243.648 439.642,243.648 439.642,297.17"/>
<polyline fill="none" stroke="#000000" stroke-width="0.5" points="443.571,288.23 440.428,288.23 440.428,243.648 443.571,243.648 443.571,288.23"/>
<polyline fill="none" stroke="#000000" stroke-width="0.5" points="447.499,287.938 444.356,287.938 444.356,243.648 447.499,243.648 447.499,287.938"/>
<polyline fill="none" stroke="#000000" stroke-width="0.5" points="451.427,287.677 448.285,287.677 448.285,243.648 451.427,243.648 451.427,287.677"/>
<polyline fill="none" stroke="#000000" stroke-width="0.5" points="455.356,238.656 452.213,238.656 452.213,243.648 455.356,243.648 455.356,238.656"/>
<polyline fill="none" stroke="#000000" stroke-width="0.5" points="459.284,253.892 456.141,253.892 456.141,243.648 459.284,243.648 459.284,253.892"/>
<polyline fill="none" stroke="#000000" stroke-width="0.5" points="463.212,280.986 460.07,280.986 460.07,243.648 463.212,243.648 463.212,280.986"/>
<polyline fill="none" stroke="#000000" stroke-width="0.5" points="74.88,243.648 521.28,243.648"/>
</g>
</svg>
