<?xml version="1.0" encoding="UTF-8" standalone="no"?>
<svg xmlns="http://www.w3.org/2000/svg"
     xmlns:xlink="http://www.w3.org/1999/xlink"
     width="576px" height="433px" viewBox="0 0 576 433">
<title>glps_renderer figure</title>
<desc>
Creator: GL2PS 1.3.9, (C) 1999-2015 C. Geuzaine
For: Octave
CreationDate: Tue Nov 22 22:19:21 2016
</desc>
<defs>
</defs>
<g shape-rendering="crispEdges">
<polygon fill="#ffffff" points="74.88,384.48 521.28,384.48 74.88,32.4"/>
<polygon fill="#ffffff" points="521.28,384.48 521.28,32.4 74.88,32.4"/>
<text fill="#000000" x="74.88" y="389.481" font-size="10" text-anchor="middle" baseline-shift="-10" font-family="Helvetica">0</text>
<text fill="#000000" x="164.16" y="389.481" font-size="10" text-anchor="middle" baseline-shift="-10" font-family="Helvetica">5</text>
<text fill="#000000" x="253.44" y="389.481" font-size="10" text-anchor="middle" baseline-shift="-10" font-family="Helvetica">10</text>
<text fill="#000000" x="342.72" y="389.481" font-size="10" text-anchor="middle" baseline-shift="-10" font-family="Helvetica">15</text>
<text fill="#000000" x="432" y="389.481" font-size="10" text-anchor="middle" baseline-shift="-10" font-family="Helvetica">20</text>
<text fill="#000000" x="521.28" y="389.481" font-size="10" text-anchor="middle" baseline-shift="-10" font-family="Helvetica">25</text>
<text fill="#000000" x="69.8755" y="384.48" font-size="10" text-anchor="end" baseline-shift="-5" font-family="Helvetica">-1e-07</text>
<text fill="#000000" x="69.8755" y="296.46" font-size="10" text-anchor="end" baseline-shift="-5" font-family="Helvetica">-5e-08</text>
<text fill="#000000" x="69.8755" y="208.44" font-size="10" text-anchor="end" baseline-shift="-5" font-family="Helvetica">0</text>
<text fill="#000000" x="69.8755" y="120.42" font-size="10" text-anchor="end" baseline-shift="-5" font-family="Helvetica">5e-08</text>
<text fill="#000000" x="69.8755" y="32.4" font-size="10" text-anchor="end" baseline-shift="-5" font-family="Helvetica">1e-07</text>
<text fill="#000000" x="298.08" y="400.481" font-size="10" text-anchor="middle" baseline-shift="-10" font-family="Helvetica">kHz</text>
<text fill="#000000" x="33.8755" y="208.44" font-size="10" transform="rotate(-90, 33.8755, 208.44)" text-anchor="middle" baseline-shift="0" font-family="Helvetica">Spectral Density</text>
<polyline fill="none" stroke="#000000" stroke-width="0.5" stroke-dasharray="16,0" points="74.88,384.48 521.28,384.48"/>
<polyline fill="none" stroke="#000000" stroke-width="0.5" stroke-dasharray="16,0" points="74.88,32.4 521.28,32.4"/>
<polyline fill="none" stroke="#000000" stroke-width="0.5" stroke-dasharray="16,0" points="74.88,384.48 74.88,32.4"/>
<polyline fill="none" stroke="#000000" stroke-width="0.5" stroke-dasharray="16,0" points="521.28,384.48 521.28,32.4"/>
<polyline fill="none" stroke="#000000" stroke-width="0.5" stroke-dasharray="16,0" points="74.88,384.48 74.88,380.015"/>
<polyline fill="none" stroke="#000000" stroke-width="0.5" stroke-dasharray="16,0" points="74.88,32.4 74.88,36.865"/>
<polyline fill="none" stroke="#000000" stroke-width="0.5" stroke-dasharray="16,0" points="164.16,384.48 164.16,380.015"/>
<polyline fill="none" stroke="#000000" stroke-width="0.5" stroke-dasharray="16,0" points="164.16,32.4 164.16,36.865"/>
<polyline fill="none" stroke="#000000" stroke-width="0.5" stroke-dasharray="16,0" points="253.44,384.48 253.44,380.015"/>
<polyline fill="none" stroke="#000000" stroke-width="0.5" stroke-dasharray="16,0" points="253.44,32.4 253.44,36.865"/>
<polyline fill="none" stroke="#000000" stroke-width="0.5" stroke-dasharray="16,0" points="342.72,384.48 342.72,380.015"/>
<polyline fill="none" stroke="#000000" stroke-width="0.5" stroke-dasharray="16,0" points="342.72,32.4 342.72,36.865"/>
<polyline fill="none" stroke="#000000" stroke-width="0.5" stroke-dasharray="16,0" points="432,384.48 432,380.015"/>
<polyline fill="none" stroke="#000000" stroke-width="0.5" stroke-dasharray="16,0" points="432,32.4 432,36.865"/>
<polyline fill="none" stroke="#000000" stroke-width="0.5" stroke-dasharray="16,0" points="521.28,384.48 521.28,380.015"/>
<polyline fill="none" stroke="#000000" stroke-width="0.5" stroke-dasharray="16,0" points="521.28,32.4 521.28,36.865"/>
<polyline fill="none" stroke="#000000" stroke-width="0.5" stroke-dasharray="16,0" points="74.88,384.48 79.348,384.48"/>
<polyline fill="none" stroke="#000000" stroke-width="0.5" stroke-dasharray="16,0" points="521.28,384.48 516.812,384.48"/>
<polyline fill="none" stroke="#000000" stroke-width="0.5" stroke-dasharray="16,0" points="74.88,296.46 79.348,296.46"/>
<polyline fill="none" stroke="#000000" stroke-width="0.5" stroke-dasharray="16,0" points="521.28,296.46 516.812,296.46"/>
<polyline fill="none" stroke="#000000" stroke-width="0.5" stroke-dasharray="16,0" points="74.88,208.44 79.348,208.44"/>
<polyline fill="none" stroke="#000000" stroke-width="0.5" stroke-dasharray="16,0" points="521.28,208.44 516.812,208.44"/>
<polyline fill="none" stroke="#000000" stroke-width="0.5" stroke-dasharray="16,0" points="74.88,120.42 79.348,120.42"/>
<polyline fill="none" stroke="#000000" stroke-width="0.5" stroke-dasharray="16,0" points="521.28,120.42 516.812,120.42"/>
<polyline fill="none" stroke="#000000" stroke-width="0.5" stroke-dasharray="16,0" points="74.88,32.4 79.348,32.4"/>
<polyline fill="none" stroke="#000000" stroke-width="0.5" stroke-dasharray="16,0" points="521.28,32.4 516.812,32.4"/>
<polygon fill="#00007f" points="78.2369,208.44 75.0943,298.544 75.0943,208.44"/>
<polygon fill="#00007f" points="75.0943,298.544 78.2369,208.44 78.2369,298.544"/>
<polygon fill="#00007f" points="82.1652,208.44 79.0226,293.576 79.0226,208.44"/>
<polygon fill="#00007f" points="79.0226,293.576 82.1652,208.44 82.1652,293.576"/>
<polygon fill="#00007f" points="86.0936,208.44 82.9509,310.481 82.9509,208.44"/>
<polygon fill="#00007f" points="82.9509,310.481 86.0936,208.44 86.0936,310.481"/>
<polygon fill="#00007f" points="90.0219,208.44 86.8792,281.937 86.8792,208.44"/>
<polygon fill="#00007f" points="86.8792,281.937 90.0219,208.44 90.0219,281.937"/>
<polygon fill="#00007f" points="93.9502,208.44 90.8075,275.09 90.8075,208.44"/>
<polygon fill="#00007f" points="90.8075,275.09 93.9502,208.44 93.9502,275.09"/>
<polygon fill="#00007f" points="97.8785,208.44 94.7359,314.46 94.7359,208.44"/>
<polygon fill="#00007f" points="94.7359,314.46 97.8785,208.44 97.8785,314.46"/>
<polygon fill="#00007f" points="101.807,208.44 98.6642,254.482 98.6642,208.44"/>
<polygon fill="#00007f" points="98.6642,254.482 101.807,208.44 101.807,254.482"/>
<polygon fill="#00007f" points="105.735,208.44 102.593,291.001 102.593,208.44"/>
<polygon fill="#00007f" points="102.593,291.001 105.735,208.44 105.735,291.001"/>
<polygon fill="#00007f" points="109.663,208.44 106.521,276.663 106.521,208.44"/>
<polygon fill="#00007f" points="106.521,276.663 109.663,208.44 109.663,276.663"/>
<polygon fill="#00007f" points="113.592,208.44 110.449,249.264 110.449,208.44"/>
<polygon fill="#00007f" points="110.449,249.264 113.592,208.44 113.592,249.264"/>
<polygon fill="#00007f" points="117.52,208.44 114.377,232.125 114.377,208.44"/>
<polygon fill="#00007f" points="114.377,232.125 117.52,208.44 117.52,232.125"/>
<polygon fill="#00007f" points="121.448,208.44 118.306,238.223 118.306,208.44"/>
<polygon fill="#00007f" points="118.306,238.223 121.448,208.44 121.448,238.223"/>
<polygon fill="#00007f" points="125.377,208.44 122.234,167.703 122.234,208.44"/>
<polygon fill="#00007f" points="122.234,167.703 125.377,208.44 125.377,167.703"/>
<polygon fill="#00007f" points="129.305,208.44 126.162,159.044 126.162,208.44"/>
<polygon fill="#00007f" points="126.162,159.044 129.305,208.44 129.305,159.044"/>
<polygon fill="#00007f" points="133.233,208.44 130.091,144.611 130.091,208.44"/>
<polygon fill="#00007f" points="130.091,144.611 133.233,208.44 133.233,144.611"/>
<polygon fill="#00007f" points="137.162,208.44 134.019,152.929 134.019,208.44"/>
<polygon fill="#00007f" points="134.019,152.929 137.162,208.44 137.162,152.929"/>
<polygon fill="#00007f" points="141.09,208.44 137.947,136.841 137.947,208.44"/>
<polygon fill="#00007f" points="137.947,136.841 141.09,208.44 141.09,136.841"/>
<polygon fill="#00007f" points="145.018,208.44 141.876,98.3058 141.876,208.44"/>
<polygon fill="#00007f" points="141.876,98.3058 145.018,208.44 145.018,98.3058"/>
<polygon fill="#00007f" points="148.947,208.44 145.804,158.737 145.804,208.44"/>
<polygon fill="#00007f" points="145.804,158.737 148.947,208.44 148.947,158.737"/>
<polygon fill="#00007f" points="152.875,208.44 149.732,104.033 149.732,208.44"/>
<polygon fill="#00007f" points="149.732,104.033 152.875,208.44 152.875,104.033"/>
<polygon fill="#00007f" points="156.803,208.44 153.661,154.132 153.661,208.44"/>
<polygon fill="#00007f" points="153.661,154.132 156.803,208.44 156.803,154.132"/>
<polygon fill="#00007f" points="160.732,208.44 157.589,92.1693 157.589,208.44"/>
<polygon fill="#00007f" points="157.589,92.1693 160.732,208.44 160.732,92.1693"/>
<polygon fill="#00007f" points="164.66,208.44 161.517,152.881 161.517,208.44"/>
<polygon fill="#00007f" points="161.517,152.881 164.66,208.44 164.66,152.881"/>
<polygon fill="#00007f" points="168.588,208.44 165.446,194.576 165.446,208.44"/>
<polygon fill="#00007f" points="165.446,194.576 168.588,208.44 168.588,194.576"/>
<polygon fill="#00007f" points="172.517,208.44 169.374,180.638 169.374,208.44"/>
<polygon fill="#00007f" points="169.374,180.638 172.517,208.44 172.517,180.638"/>
<polygon fill="#00007f" points="176.445,208.44 173.302,172.983 173.302,208.44"/>
<polygon fill="#00007f" points="173.302,172.983 176.445,208.44 176.445,172.983"/>
<polygon fill="#00007f" points="180.373,208.44 177.231,96.1974 177.231,208.44"/>
<polygon fill="#00007f" points="177.231,96.1974 180.373,208.44 180.373,96.1974"/>
<polygon fill="#00007f" points="184.302,208.44 181.159,131.465 181.159,208.44"/>
<polygon fill="#00007f" points="181.159,131.465 184.302,208.44 184.302,131.465"/>
<polygon fill="#00007f" points="188.23,208.44 185.087,54.2051 185.087,208.44"/>
<polygon fill="#00007f" points="185.087,54.2051 188.23,208.44 188.23,54.2051"/>
<polygon fill="#00007f" points="192.158,208.44 189.016,63.0955 189.016,208.44"/>
<polygon fill="#00007f" points="189.016,63.0955 192.158,208.44 192.158,63.0955"/>
<polygon fill="#00007f" points="196.087,208.44 192.944,116.67 192.944,208.44"/>
<polygon fill="#00007f" points="192.944,116.67 196.087,208.44 196.087,116.67"/>
<polygon fill="#00007f" points="200.015,208.44 196.872,42.1454 196.872,208.44"/>
<polygon fill="#00007f" points="196.872,42.1454 200.015,208.44 200.015,42.1454"/>
<polygon fill="#00007f" points="203.943,208.44 200.801,96.5184 200.801,208.44"/>
<polygon fill="#00007f" points="200.801,96.5184 203.943,208.44 203.943,96.5184"/>
<polygon fill="#00007f" points="207.871,208.44 204.729,104.404 204.729,208.44"/>
<polygon fill="#00007f" points="204.729,104.404 207.871,208.44 207.871,104.404"/>
<polygon fill="#00007f" points="211.8,208.44 208.657,187.284 208.657,208.44"/>
<polygon fill="#00007f" points="208.657,187.284 211.8,208.44 211.8,187.284"/>
<polygon fill="#00007f" points="215.728,208.44 212.585,207.866 212.585,208.44"/>
<polygon fill="#00007f" points="212.585,207.866 215.728,208.44 215.728,207.866"/>
<polygon fill="#00007f" points="219.656,208.44 216.514,154.559 216.514,208.44"/>
<polygon fill="#00007f" points="216.514,154.559 219.656,208.44 219.656,154.559"/>
<polygon fill="#00007f" points="223.585,208.44 220.442,209.034 220.442,208.44"/>
<polygon fill="#00007f" points="220.442,209.034 223.585,208.44 223.585,209.034"/>
<polygon fill="#00007f" points="227.513,208.44 224.37,238.235 224.37,208.44"/>
<polygon fill="#00007f" points="224.37,238.235 227.513,208.44 227.513,238.235"/>
<polygon fill="#00007f" points="231.441,208.44 228.299,223.372 228.299,208.44"/>
<polygon fill="#00007f" points="228.299,223.372 231.441,208.44 231.441,223.372"/>
<polygon fill="#00007f" points="235.37,208.44 232.227,190.671 232.227,208.44"/>
<polygon fill="#00007f" points="232.227,190.671 235.37,208.44 235.37,190.671"/>
<polygon fill="#00007f" points="239.298,208.44 236.155,204.306 236.155,208.44"/>
<polygon fill="#00007f" points="236.155,204.306 239.298,208.44 239.298,204.306"/>
<polygon fill="#00007f" points="243.226,208.44 240.084,236.566 240.084,208.44"/>
<polygon fill="#00007f" points="240.084,236.566 243.226,208.44 243.226,236.566"/>
<polygon fill="#00007f" points="247.155,208.44 244.012,275.065 244.012,208.44"/>
<polygon fill="#00007f" points="244.012,275.065 247.155,208.44 247.155,275.065"/>
<polygon fill="#00007f" points="251.083,208.44 247.94,260.984 247.94,208.44"/>
<polygon fill="#00007f" points="247.94,260.984 251.083,208.44 251.083,260.984"/>
<polygon fill="#00007f" points="255.011,208.44 251.869,280.315 251.869,208.44"/>
<polygon fill="#00007f" points="251.869,280.315 255.011,208.44 255.011,280.315"/>
<polygon fill="#00007f" points="258.94,208.44 255.797,272.669 255.797,208.44"/>
<polygon fill="#00007f" points="255.797,272.669 258.94,208.44 258.94,272.669"/>
<polygon fill="#00007f" points="262.868,208.44 259.725,302.002 259.725,208.44"/>
<polygon fill="#00007f" points="259.725,302.002 262.868,208.44 262.868,302.002"/>
<polygon fill="#00007f" points="266.796,208.44 263.654,287.713 263.654,208.44"/>
<polygon fill="#00007f" points="263.654,287.713 266.796,208.44 266.796,287.713"/>
<polygon fill="#00007f" points="270.725,208.44 267.582,305.48 267.582,208.44"/>
<polygon fill="#00007f" points="267.582,305.48 270.725,208.44 270.725,305.48"/>
<polygon fill="#00007f" points="274.653,208.44 271.51,261.685 271.51,208.44"/>
<polygon fill="#00007f" points="271.51,261.685 274.653,208.44 274.653,261.685"/>
<polygon fill="#00007f" points="278.581,208.44 275.439,229.817 275.439,208.44"/>
<polygon fill="#00007f" points="275.439,229.817 278.581,208.44 278.581,229.817"/>
<polygon fill="#00007f" points="282.51,208.44 279.367,240.744 279.367,208.44"/>
<polygon fill="#00007f" points="279.367,240.744 282.51,208.44 282.51,240.744"/>
<polygon fill="#00007f" points="286.438,208.44 283.295,251.985 283.295,208.44"/>
<polygon fill="#00007f" points="283.295,251.985 286.438,208.44 286.438,251.985"/>
<polygon fill="#00007f" points="290.366,208.44 287.224,250.2 287.224,208.44"/>
<polygon fill="#00007f" points="287.224,250.2 290.366,208.44 290.366,250.2"/>
<polygon fill="#00007f" points="294.295,208.44 291.152,229.195 291.152,208.44"/>
<polygon fill="#00007f" points="291.152,229.195 294.295,208.44 294.295,229.195"/>
<polygon fill="#00007f" points="298.223,208.44 295.08,241.11 295.08,208.44"/>
<polygon fill="#00007f" points="295.08,241.11 298.223,208.44 298.223,241.11"/>
<polygon fill="#00007f" points="302.151,208.44 299.008,194.93 299.008,208.44"/>
<polygon fill="#00007f" points="299.008,194.93 302.151,208.44 302.151,194.93"/>
<polygon fill="#00007f" points="306.079,208.44 302.937,203.915 302.937,208.44"/>
<polygon fill="#00007f" points="302.937,203.915 306.079,208.44 306.079,203.915"/>
<polygon fill="#00007f" points="310.008,208.44 306.865,194.319 306.865,208.44"/>
<polygon fill="#00007f" points="306.865,194.319 310.008,208.44 310.008,194.319"/>
<polygon fill="#00007f" points="313.936,208.44 310.793,162.551 310.793,208.44"/>
<polygon fill="#00007f" points="310.793,162.551 313.936,208.44 313.936,162.551"/>
<polygon fill="#00007f" points="317.864,208.44 314.722,80.3812 314.722,208.44"/>
<polygon fill="#00007f" points="314.722,80.3812 317.864,208.44 317.864,80.3812"/>
<polygon fill="#00007f" points="321.793,208.44 318.65,93.1768 318.65,208.44"/>
<polygon fill="#00007f" points="318.65,93.1768 321.793,208.44 321.793,93.1768"/>
<polygon fill="#00007f" points="325.721,208.44 322.578,121.93 322.578,208.44"/>
<polygon fill="#00007f" points="322.578,121.93 325.721,208.44 325.721,121.93"/>
<polygon fill="#00007f" points="329.649,208.44 326.507,126.397 326.507,208.44"/>
<polygon fill="#00007f" points="326.507,126.397 329.649,208.44 329.649,126.397"/>
<polygon fill="#00007f" points="333.578,208.44 330.435,198.357 330.435,208.44"/>
<polygon fill="#00007f" points="330.435,198.357 333.578,208.44 333.578,198.357"/>
<polygon fill="#00007f" points="337.506,208.44 334.363,127.311 334.363,208.44"/>
<polygon fill="#00007f" points="334.363,127.311 337.506,208.44 337.506,127.311"/>
<polygon fill="#00007f" points="341.434,208.44 338.292,158.604 338.292,208.44"/>
<polygon fill="#00007f" points="338.292,158.604 341.434,208.44 341.434,158.604"/>
<polygon fill="#00007f" points="345.363,208.44 342.22,194.571 342.22,208.44"/>
<polygon fill="#00007f" points="342.22,194.571 345.363,208.44 345.363,194.571"/>
<polygon fill="#00007f" points="349.291,208.44 346.148,174.18 346.148,208.44"/>
<polygon fill="#00007f" points="346.148,174.18 349.291,208.44 349.291,174.18"/>
<polygon fill="#00007f" points="353.219,208.44 350.077,126.254 350.077,208.44"/>
<polygon fill="#00007f" points="350.077,126.254 353.219,208.44 353.219,126.254"/>
<polygon fill="#00007f" points="357.148,208.44 354.005,193.371 354.005,208.44"/>
<polygon fill="#00007f" points="354.005,193.371 357.148,208.44 357.148,193.371"/>
<polygon fill="#00007f" points="361.076,208.44 357.933,210.031 357.933,208.44"/>
<polygon fill="#00007f" points="357.933,210.031 361.076,208.44 361.076,210.031"/>
<polygon fill="#00007f" points="365.004,208.44 361.862,179.56 361.862,208.44"/>
<polygon fill="#00007f" points="361.862,179.56 365.004,208.44 365.004,179.56"/>
<polygon fill="#00007f" points="368.933,208.44 365.79,231.335 365.79,208.44"/>
<polygon fill="#00007f" points="365.79,231.335 368.933,208.44 368.933,231.335"/>
<polygon fill="#00007f" points="372.861,208.44 369.718,195.501 369.718,208.44"/>
<polygon fill="#00007f" points="369.718,195.501 372.861,208.44 372.861,195.501"/>
<polygon fill="#00007f" points="376.789,208.44 373.647,219.996 373.647,208.44"/>
<polygon fill="#00007f" points="373.647,219.996 376.789,208.44 376.789,219.996"/>
<polygon fill="#00007f" points="380.718,208.44 377.575,215.563 377.575,208.44"/>
<polygon fill="#00007f" points="377.575,215.563 380.718,208.44 380.718,215.563"/>
<polygon fill="#00007f" points="384.646,208.44 381.503,206.025 381.503,208.44"/>
<polygon fill="#00007f" points="381.503,206.025 384.646,208.44 384.646,206.025"/>
<polygon fill="#00007f" points="388.574,208.44 385.432,219.815 385.432,208.44"/>
<polygon fill="#00007f" points="385.432,219.815 388.574,208.44 388.574,219.815"/>
<polygon fill="#00007f" points="392.503,208.44 389.36,246.203 389.36,208.44"/>
<polygon fill="#00007f" points="389.36,246.203 392.503,208.44 392.503,246.203"/>
<polygon fill="#00007f" points="396.431,208.44 393.288,240.649 393.288,208.44"/>
<polygon fill="#00007f" points="393.288,240.649 396.431,208.44 396.431,240.649"/>
<polygon fill="#00007f" points="400.359,208.44 397.216,250.282 397.216,208.44"/>
<polygon fill="#00007f" points="397.216,250.282 400.359,208.44 400.359,250.282"/>
<polygon fill="#00007f" points="404.287,208.44 401.145,262.208 401.145,208.44"/>
<polygon fill="#00007f" points="401.145,262.208 404.287,208.44 404.287,262.208"/>
<polygon fill="#00007f" points="408.216,208.44 405.073,252.695 405.073,208.44"/>
<polygon fill="#00007f" points="405.073,252.695 408.216,208.44 408.216,252.695"/>
<polygon fill="#00007f" points="412.144,208.44 409.001,245.826 409.001,208.44"/>
<polygon fill="#00007f" points="409.001,245.826 412.144,208.44 412.144,245.826"/>
<polygon fill="#00007f" points="416.072,208.44 412.93,281.479 412.93,208.44"/>
<polygon fill="#00007f" points="412.93,281.479 416.072,208.44 416.072,281.479"/>
<polygon fill="#00007f" points="420.001,208.44 416.858,259.473 416.858,208.44"/>
<polygon fill="#00007f" points="416.858,259.473 420.001,208.44 420.001,259.473"/>
<polygon fill="#00007f" points="423.929,208.44 420.786,236.006 420.786,208.44"/>
<polygon fill="#00007f" points="420.786,236.006 423.929,208.44 423.929,236.006"/>
<polygon fill="#00007f" points="427.857,208.44 424.715,274.443 424.715,208.44"/>
<polygon fill="#00007f" points="424.715,274.443 427.857,208.44 427.857,274.443"/>
<polygon fill="#00007f" points="431.786,208.44 428.643,310.313 428.643,208.44"/>
<polygon fill="#00007f" points="428.643,310.313 431.786,208.44 431.786,310.313"/>
<polygon fill="#00007f" points="435.714,208.44 432.571,270.984 432.571,208.44"/>
<polygon fill="#00007f" points="432.571,270.984 435.714,208.44 435.714,270.984"/>
<polygon fill="#00007f" points="439.642,208.44 436.5,263.018 436.5,208.44"/>
<polygon fill="#00007f" points="436.5,263.018 439.642,208.44 439.642,263.018"/>
<polygon fill="#00007f" points="443.571,208.44 440.428,274.45 440.428,208.44"/>
<polygon fill="#00007f" points="440.428,274.45 443.571,208.44 443.571,274.45"/>
<polygon fill="#00007f" points="447.499,208.44 444.356,285.773 444.356,208.44"/>
<polygon fill="#00007f" points="444.356,285.773 447.499,208.44 447.499,285.773"/>
<polygon fill="#00007f" points="451.427,208.44 448.285,273.99 448.285,208.44"/>
<polygon fill="#00007f" points="448.285,273.99 451.427,208.44 451.427,273.99"/>
<polygon fill="#00007f" points="455.356,208.44 452.213,164.209 452.213,208.44"/>
<polygon fill="#00007f" points="452.213,164.209 455.356,208.44 455.356,164.209"/>
<polygon fill="#00007f" points="459.284,208.44 456.141,219.322 456.141,208.44"/>
<polygon fill="#00007f" points="456.141,219.322 459.284,208.44 459.284,219.322"/>
<polygon fill="#00007f" points="463.212,208.44 460.07,240.021 460.07,208.44"/>
<polygon fill="#00007f" points="460.07,240.021 463.212,208.44 463.212,240.021"/>
<polyline fill="none" stroke="#000000" stroke-width="0.5" points="78.2369,298.544 75.0943,298.544 75.0943,208.44 78.2369,208.44 78.2369,298.544"/>
<polyline fill="none" stroke="#000000" stroke-width="0.5" points="82.1652,293.576 79.0226,293.576 79.0226,208.44 82.1652,208.44 82.1652,293.576"/>
<polyline fill="none" stroke="#000000" stroke-width="0.5" points="86.0936,310.481 82.9509,310.481 82.9509,208.44 86.0936,208.44 86.0936,310.481"/>
<polyline fill="none" stroke="#000000" stroke-width="0.5" points="90.0219,281.937 86.8792,281.937 86.8792,208.44 90.0219,208.44 90.0219,281.937"/>
<polyline fill="none" stroke="#000000" stroke-width="0.5" points="93.9502,275.09 90.8075,275.09 90.8075,208.44 93.9502,208.44 93.9502,275.09"/>
<polyline fill="none" stroke="#000000" stroke-width="0.5" points="97.8785,314.46 94.7359,314.46 94.7359,208.44 97.8785,208.44 97.8785,314.46"/>
<polyline fill="none" stroke="#000000" stroke-width="0.5" points="101.807,254.482 98.6642,254.482 98.6642,208.44 101.807,208.44 101.807,254.482"/>
<polyline fill="none" stroke="#000000" stroke-width="0.5" points="105.735,291.001 102.593,291.001 102.593,208.44 105.735,208.44 105.735,291.001"/>
<polyline fill="none" stroke="#000000" stroke-width="0.5" points="109.663,276.663 106.521,276.663 106.521,208.44 109.663,208.44 109.663,276.663"/>
<polyline fill="none" stroke="#000000" stroke-width="0.5" points="113.592,249.264 110.449,249.264 110.449,208.44 113.592,208.44 113.592,249.264"/>
<polyline fill="none" stroke="#000000" stroke-width="0.5" points="117.52,232.125 114.377,232.125 114.377,208.44 117.52,208.44 117.52,232.125"/>
<polyline fill="none" stroke="#000000" stroke-width="0.5" points="121.448,238.223 118.306,238.223 118.306,208.44 121.448,208.44 121.448,238.223"/>
<polyline fill="none" stroke="#000000" stroke-width="0.5" points="125.377,167.703 122.234,167.703 122.234,208.44 125.377,208.44 125.377,167.703"/>
<polyline fill="none" stroke="#000000" stroke-width="0.5" points="129.305,159.044 126.162,159.044 126.162,208.44 129.305,208.44 129.305,159.044"/>
<polyline fill="none" stroke="#000000" stroke-width="0.5" points="133.233,144.611 130.091,144.611 130.091,208.44 133.233,208.44 133.233,144.611"/>
<polyline fill="none" stroke="#000000" stroke-width="0.5" points="137.162,152.929 134.019,152.929 134.019,208.44 137.162,208.44 137.162,152.929"/>
<polyline fill="none" stroke="#000000" stroke-width="0.5" points="141.09,136.841 137.947,136.841 137.947,208.44 141.09,208.44 141.09,136.841"/>
<polyline fill="none" stroke="#000000" stroke-width="0.5" points="145.018,98.3058 141.876,98.3058 141.876,208.44 145.018,208.44 145.018,98.3058"/>
<polyline fill="none" stroke="#000000" stroke-width="0.5" points="148.947,158.737 145.804,158.737 145.804,208.44 148.947,208.44 148.947,158.737"/>
<polyline fill="none" stroke="#000000" stroke-width="0.5" points="152.875,104.033 149.732,104.033 149.732,208.44 152.875,208.44 152.875,104.033"/>
<polyline fill="none" stroke="#000000" stroke-width="0.5" points="156.803,154.132 153.661,154.132 153.661,208.44 156.803,208.44 156.803,154.132"/>
<polyline fill="none" stroke="#000000" stroke-width="0.5" points="160.732,92.1693 157.589,92.1693 157.589,208.44 160.732,208.44 160.732,92.1693"/>
<polyline fill="none" stroke="#000000" stroke-width="0.5" points="164.66,152.881 161.517,152.881 161.517,208.44 164.66,208.44 164.66,152.881"/>
<polyline fill="none" stroke="#000000" stroke-width="0.5" points="168.588,194.576 165.446,194.576 165.446,208.44 168.588,208.44 168.588,194.576"/>
<polyline fill="none" stroke="#000000" stroke-width="0.5" points="172.517,180.638 169.374,180.638 169.374,208.44 172.517,208.44 172.517,180.638"/>
<polyline fill="none" stroke="#000000" stroke-width="0.5" points="176.445,172.983 173.302,172.983 173.302,208.44 176.445,208.44 176.445,172.983"/>
<polyline fill="none" stroke="#000000" stroke-width="0.5" points="180.373,96.1974 177.231,96.1974 177.231,208.44 180.373,208.44 180.373,96.1974"/>
<polyline fill="none" stroke="#000000" stroke-width="0.5" points="184.302,131.465 181.159,131.465 181.159,208.44 184.302,208.44 184.302,131.465"/>
<polyline fill="none" stroke="#000000" stroke-width="0.5" points="188.23,54.2051 185.087,54.2051 185.087,208.44 188.23,208.44 188.23,54.2051"/>
<polyline fill="none" stroke="#000000" stroke-width="0.5" points="192.158,63.0955 189.016,63.0955 189.016,208.44 192.158,208.44 192.158,63.0955"/>
<polyline fill="none" stroke="#000000" stroke-width="0.5" points="196.087,116.67 192.944,116.67 192.944,208.44 196.087,208.44 196.087,116.67"/>
<polyline fill="none" stroke="#000000" stroke-width="0.5" points="200.015,42.1454 196.872,42.1454 196.872,208.44 200.015,208.44 200.015,42.1454"/>
<polyline fill="none" stroke="#000000" stroke-width="0.5" points="203.943,96.5184 200.801,96.5184 200.801,208.44 203.943,208.44 203.943,96.5184"/>
<polyline fill="none" stroke="#000000" stroke-width="0.5" points="207.871,104.404 204.729,104.404 204.729,208.44 207.871,208.44 207.871,104.404"/>
<polyline fill="none" stroke="#000000" stroke-width="0.5" points="211.8,187.284 208.657,187.284 208.657,208.44 211.8,208.44 211.8,187.284"/>
<polyline fill="none" stroke="#000000" stroke-width="0.5" points="215.728,207.866 212.585,207.866 212.585,208.44 215.728,208.44 215.728,207.866"/>
<polyline fill="none" stroke="#000000" stroke-width="0.5" points="219.656,154.559 216.514,154.559 216.514,208.44 219.656,208.44 219.656,154.559"/>
<polyline fill="none" stroke="#000000" stroke-width="0.5" points="223.585,209.034 220.442,209.034 220.442,208.44 223.585,208.44 223.585,209.034"/>
<polyline fill="none" stroke="#000000" stroke-width="0.5" points="227.513,238.235 224.37,238.235 224.37,208.44 227.513,208.44 227.513,238.235"/>
<polyline fill="none" stroke="#000000" stroke-width="0.5" points="231.441,223.372 228.299,223.372 228.299,208.44 231.441,208.44 231.441,223.372"/>
<polyline fill="none" stroke="#000000" stroke-width="0.5" points="235.37,190.671 232.227,190.671 232.227,208.44 235.37,208.44 235.37,190.671"/>
<polyline fill="none" stroke="#000000" stroke-width="0.5" points="239.298,204.306 236.155,204.306 236.155,208.44 239.298,208.44 239.298,204.306"/>
<polyline fill="none" stroke="#000000" stroke-width="0.5" points="243.226,236.566 240.084,236.566 240.084,208.44 243.226,208.44 243.226,236.566"/>
<polyline fill="none" stroke="#000000" stroke-width="0.5" points="247.155,275.065 244.012,275.065 244.012,208.44 247.155,208.44 247.155,275.065"/>
<polyline fill="none" stroke="#000000" stroke-width="0.5" points="251.083,260.984 247.94,260.984 247.94,208.44 251.083,208.44 251.083,260.984"/>
<polyline fill="none" stroke="#000000" stroke-width="0.5" points="255.011,280.315 251.869,280.315 251.869,208.44 255.011,208.44 255.011,280.315"/>
<polyline fill="none" stroke="#000000" stroke-width="0.5" points="258.94,272.669 255.797,272.669 255.797,208.44 258.94,208.44 258.94,272.669"/>
<polyline fill="none" stroke="#000000" stroke-width="0.5" points="262.868,302.002 259.725,302.002 259.725,208.44 262.868,208.44 262.868,302.002"/>
<polyline fill="none" stroke="#000000" stroke-width="0.5" points="266.796,287.713 263.654,287.713 263.654,208.44 266.796,208.44 266.796,287.713"/>
<polyline fill="none" stroke="#000000" stroke-width="0.5" points="270.725,305.48 267.582,305.48 267.582,208.44 270.725,208.44 270.725,305.48"/>
<polyline fill="none" stroke="#000000" stroke-width="0.5" points="274.653,261.685 271.51,261.685 271.51,208.44 274.653,208.44 274.653,261.685"/>
<polyline fill="none" stroke="#000000" stroke-width="0.5" points="278.581,229.817 275.439,229.817 275.439,208.44 278.581,208.44 278.581,229.817"/>
<polyline fill="none" stroke="#000000" stroke-width="0.5" points="282.51,240.744 279.367,240.744 279.367,208.44 282.51,208.44 282.51,240.744"/>
<polyline fill="none" stroke="#000000" stroke-width="0.5" points="286.438,251.985 283.295,251.985 283.295,208.44 286.438,208.44 286.438,251.985"/>
<polyline fill="none" stroke="#000000" stroke-width="0.5" points="290.366,250.2 287.224,250.2 287.224,208.44 290.366,208.44 290.366,250.2"/>
<polyline fill="none" stroke="#000000" stroke-width="0.5" points="294.295,229.195 291.152,229.195 291.152,208.44 294.295,208.44 294.295,229.195"/>
<polyline fill="none" stroke="#000000" stroke-width="0.5" points="298.223,241.11 295.08,241.11 295.08,208.44 298.223,208.44 298.223,241.11"/>
<polyline fill="none" stroke="#000000" stroke-width="0.5" points="302.151,194.93 299.008,194.93 299.008,208.44 302.151,208.44 302.151,194.93"/>
<polyline fill="none" stroke="#000000" stroke-width="0.5" points="306.079,203.915 302.937,203.915 302.937,208.44 306.079,208.44 306.079,203.915"/>
<polyline fill="none" stroke="#000000" stroke-width="0.5" points="310.008,194.319 306.865,194.319 306.865,208.44 310.008,208.44 310.008,194.319"/>
<polyline fill="none" stroke="#000000" stroke-width="0.5" points="313.936,162.551 310.793,162.551 310.793,208.44 313.936,208.44 313.936,162.551"/>
<polyline fill="none" stroke="#000000" stroke-width="0.5" points="317.864,80.3812 314.722,80.3812 314.722,208.44 317.864,208.44 317.864,80.3812"/>
<polyline fill="none" stroke="#000000" stroke-width="0.5" points="321.793,93.1768 318.65,93.1768 318.65,208.44 321.793,208.44 321.793,93.1768"/>
<polyline fill="none" stroke="#000000" stroke-width="0.5" points="325.721,121.93 322.578,121.93 322.578,208.44 325.721,208.44 325.721,121.93"/>
<polyline fill="none" stroke="#000000" stroke-width="0.5" points="329.649,126.397 326.507,126.397 326.507,208.44 329.649,208.44 329.649,126.397"/>
<polyline fill="none" stroke="#000000" stroke-width="0.5" points="333.578,198.357 330.435,198.357 330.435,208.44 333.578,208.44 333.578,198.357"/>
<polyline fill="none" stroke="#000000" stroke-width="0.5" points="337.506,127.311 334.363,127.311 334.363,208.44 337.506,208.44 337.506,127.311"/>
<polyline fill="none" stroke="#000000" stroke-width="0.5" points="341.434,158.604 338.292,158.604 338.292,208.44 341.434,208.44 341.434,158.604"/>
<polyline fill="none" stroke="#000000" stroke-width="0.5" points="345.363,194.571 342.22,194.571 342.22,208.44 345.363,208.44 345.363,194.571"/>
<polyline fill="none" stroke="#000000" stroke-width="0.5" points="349.291,174.18 346.148,174.18 346.148,208.44 349.291,208.44 349.291,174.18"/>
<polyline fill="none" stroke="#000000" stroke-width="0.5" points="353.219,126.254 350.077,126.254 350.077,208.44 353.219,208.44 353.219,126.254"/>
<polyline fill="none" stroke="#000000" stroke-width="0.5" points="357.148,193.371 354.005,193.371 354.005,208.44 357.148,208.44 357.148,193.371"/>
<polyline fill="none" stroke="#000000" stroke-width="0.5" points="361.076,210.031 357.933,210.031 357.933,208.44 361.076,208.44 361.076,210.031"/>
<polyline fill="none" stroke="#000000" stroke-width="0.5" points="365.004,179.56 361.862,179.56 361.862,208.44 365.004,208.44 365.004,179.56"/>
<polyline fill="none" stroke="#000000" stroke-width="0.5" points="368.933,231.335 365.79,231.335 365.79,208.44 368.933,208.44 368.933,231.335"/>
<polyline fill="none" stroke="#000000" stroke-width="0.5" points="372.861,195.501 369.718,195.501 369.718,208.44 372.861,208.44 372.861,195.501"/>
<polyline fill="none" stroke="#000000" stroke-width="0.5" points="376.789,219.996 373.647,219.996 373.647,208.44 376.789,208.44 376.789,219.996"/>
<polyline fill="none" stroke="#000000" stroke-width="0.5" points="380.718,215.563 377.575,215.563 377.575,208.44 380.718,208.44 380.718,215.563"/>
<polyline fill="none" stroke="#000000" stroke-width="0.5" points="384.646,206.025 381.503,206.025 381.503,208.44 384.646,208.44 384.646,206.025"/>
<polyline fill="none" stroke="#000000" stroke-width="0.5" points="388.574,219.815 385.432,219.815 385.432,208.44 388.574,208.44 388.574,219.815"/>
<polyline fill="none" stroke="#000000" stroke-width="0.5" points="392.503,246.203 389.36,246.203 389.36,208.44 392.503,208.44 392.503,246.203"/>
<polyline fill="none" stroke="#000000" stroke-width="0.5" points="396.431,240.649 393.288,240.649 393.288,208.44 396.431,208.44 396.431,240.649"/>
<polyline fill="none" stroke="#000000" stroke-width="0.5" points="400.359,250.282 397.216,250.282 397.216,208.44 400.359,208.44 400.359,250.282"/>
<polyline fill="none" stroke="#000000" stroke-width="0.5" points="404.287,262.208 401.145,262.208 401.145,208.44 404.287,208.44 404.287,262.208"/>
<polyline fill="none" stroke="#000000" stroke-width="0.5" points="408.216,252.695 405.073,252.695 405.073,208.44 408.216,208.44 408.216,252.695"/>
<polyline fill="none" stroke="#000000" stroke-width="0.5" points="412.144,245.826 409.001,245.826 409.001,208.44 412.144,208.44 412.144,245.826"/>
<polyline fill="none" stroke="#000000" stroke-width="0.5" points="416.072,281.479 412.93,281.479 412.93,208.44 416.072,208.44 416.072,281.479"/>
<polyline fill="none" stroke="#000000" stroke-width="0.5" points="420.001,259.473 416.858,259.473 416.858,208.44 420.001,208.44 420.001,259.473"/>
<polyline fill="none" stroke="#000000" stroke-width="0.5" points="423.929,236.006 420.786,236.006 420.786,208.44 423.929,208.44 423.929,236.006"/>
<polyline fill="none" stroke="#000000" stroke-width="0.5" points="427.857,274.443 424.715,274.443 424.715,208.44 427.857,208.44 427.857,274.443"/>
<polyline fill="none" stroke="#000000" stroke-width="0.5" points="431.786,310.313 428.643,310.313 428.643,208.44 431.786,208.44 431.786,310.313"/>
<polyline fill="none" stroke="#000000" stroke-width="0.5" points="435.714,270.984 432.571,270.984 432.571,208.44 435.714,208.44 435.714,270.984"/>
<polyline fill="none" stroke="#000000" stroke-width="0.5" points="439.642,263.018 436.5,263.018 436.5,208.44 439.642,208.44 439.642,263.018"/>
<polyline fill="none" stroke="#000000" stroke-width="0.5" points="443.571,274.45 440.428,274.45 440.428,208.44 443.571,208.44 443.571,274.45"/>
<polyline fill="none" stroke="#000000" stroke-width="0.5" points="447.499,285.773 444.356,285.773 444.356,208.44 447.499,208.44 447.499,285.773"/>
<polyline fill="none" stroke="#000000" stroke-width="0.5" points="451.427,273.99 448.285,273.99 448.285,208.44 451.427,208.44 451.427,273.99"/>
<polyline fill="none" stroke="#000000" stroke-width="0.5" points="455.356,164.209 452.213,164.209 452.213,208.44 455.356,208.44 455.356,164.209"/>
<polyline fill="none" stroke="#000000" stroke-width="0.5" points="459.284,219.322 456.141,219.322 456.141,208.44 459.284,208.44 459.284,219.322"/>
<polyline fill="none" stroke="#000000" stroke-width="0.5" points="463.212,240.021 460.07,240.021 460.07,208.44 463.212,208.44 463.212,240.021"/>
<polyline fill="none" stroke="#000000" stroke-width="0.5" points="74.88,208.44 521.28,208.44"/>
</g>
</svg>
