<?xml version="1.0" encoding="UTF-8" standalone="no"?>
<svg xmlns="http://www.w3.org/2000/svg"
     xmlns:xlink="http://www.w3.org/1999/xlink"
     width="576px" height="433px" viewBox="0 0 576 433">
<title>glps_renderer figure</title>
<desc>
Creator: GL2PS 1.3.9, (C) 1999-2015 C. Geuzaine
For: Octave
CreationDate: Mon Nov 21 21:47:46 2016
</desc>
<defs>
</defs>
<g shape-rendering="crispEdges">
<polygon fill="#ffffff" points="74.88,384.48 521.28,384.48 74.88,32.4"/>
<polygon fill="#ffffff" points="521.28,384.48 521.28,32.4 74.88,32.4"/>
<polyline fill="none" stroke="#000000" stroke-width="0.5" stroke-dasharray="16,0" points="74.88,384.48 521.28,384.48"/>
<polyline fill="none" stroke="#000000" stroke-width="0.5" stroke-dasharray="16,0" points="74.88,32.4 521.28,32.4"/>
<polyline fill="none" stroke="#000000" stroke-width="0.5" stroke-dasharray="16,0" points="74.88,384.48 74.88,32.4"/>
<polyline fill="none" stroke="#000000" stroke-width="0.5" stroke-dasharray="16,0" points="521.28,384.48 521.28,32.4"/>
<polyline fill="none" stroke="#000000" stroke-width="0.5" stroke-dasharray="16,0" points="74.88,384.48 74.88,380.015"/>
<polyline fill="none" stroke="#000000" stroke-width="0.5" stroke-dasharray="16,0" points="74.88,32.4 74.88,36.8651"/>
<polyline fill="none" stroke="#000000" stroke-width="0.5" stroke-dasharray="16,0" points="164.16,384.48 164.16,380.015"/>
<polyline fill="none" stroke="#000000" stroke-width="0.5" stroke-dasharray="16,0" points="164.16,32.4 164.16,36.8651"/>
<polyline fill="none" stroke="#000000" stroke-width="0.5" stroke-dasharray="16,0" points="253.44,384.48 253.44,380.015"/>
<polyline fill="none" stroke="#000000" stroke-width="0.5" stroke-dasharray="16,0" points="253.44,32.4 253.44,36.8651"/>
<polyline fill="none" stroke="#000000" stroke-width="0.5" stroke-dasharray="16,0" points="342.72,384.48 342.72,380.015"/>
<polyline fill="none" stroke="#000000" stroke-width="0.5" stroke-dasharray="16,0" points="342.72,32.4 342.72,36.8651"/>
<polyline fill="none" stroke="#000000" stroke-width="0.5" stroke-dasharray="16,0" points="432,384.48 432,380.015"/>
<polyline fill="none" stroke="#000000" stroke-width="0.5" stroke-dasharray="16,0" points="432,32.4 432,36.8651"/>
<polyline fill="none" stroke="#000000" stroke-width="0.5" stroke-dasharray="16,0" points="521.28,384.48 521.28,380.015"/>
<polyline fill="none" stroke="#000000" stroke-width="0.5" stroke-dasharray="16,0" points="521.28,32.4 521.28,36.8651"/>
<text fill="#000000" x="74.88" y="389.481" font-size="10" text-anchor="middle" baseline-shift="-10" font-family="Helvetica">0</text>
<text fill="#000000" x="164.16" y="389.481" font-size="10" text-anchor="middle" baseline-shift="-10" font-family="Helvetica">20</text>
<text fill="#000000" x="253.44" y="389.481" font-size="10" text-anchor="middle" baseline-shift="-10" font-family="Helvetica">40</text>
<text fill="#000000" x="342.72" y="389.481" font-size="10" text-anchor="middle" baseline-shift="-10" font-family="Helvetica">60</text>
<text fill="#000000" x="432" y="389.481" font-size="10" text-anchor="middle" baseline-shift="-10" font-family="Helvetica">80</text>
<text fill="#000000" x="521.28" y="389.481" font-size="10" text-anchor="middle" baseline-shift="-10" font-family="Helvetica">100</text>
<polyline fill="none" stroke="#000000" stroke-width="0.5" stroke-dasharray="16,0" points="74.88,384.48 79.348,384.48"/>
<polyline fill="none" stroke="#000000" stroke-width="0.5" stroke-dasharray="16,0" points="521.28,384.48 516.812,384.48"/>
<polyline fill="none" stroke="#000000" stroke-width="0.5" stroke-dasharray="16,0" points="74.88,314.064 79.348,314.064"/>
<polyline fill="none" stroke="#000000" stroke-width="0.5" stroke-dasharray="16,0" points="521.28,314.064 516.812,314.064"/>
<polyline fill="none" stroke="#000000" stroke-width="0.5" stroke-dasharray="16,0" points="74.88,243.648 79.348,243.648"/>
<polyline fill="none" stroke="#000000" stroke-width="0.5" stroke-dasharray="16,0" points="521.28,243.648 516.812,243.648"/>
<polyline fill="none" stroke="#000000" stroke-width="0.5" stroke-dasharray="16,0" points="74.88,173.232 79.348,173.232"/>
<polyline fill="none" stroke="#000000" stroke-width="0.5" stroke-dasharray="16,0" points="521.28,173.232 516.812,173.232"/>
<polyline fill="none" stroke="#000000" stroke-width="0.5" stroke-dasharray="16,0" points="74.88,102.816 79.348,102.816"/>
<polyline fill="none" stroke="#000000" stroke-width="0.5" stroke-dasharray="16,0" points="521.28,102.816 516.812,102.816"/>
<polyline fill="none" stroke="#000000" stroke-width="0.5" stroke-dasharray="16,0" points="74.88,32.4 79.348,32.4"/>
<polyline fill="none" stroke="#000000" stroke-width="0.5" stroke-dasharray="16,0" points="521.28,32.4 516.812,32.4"/>
<text fill="#000000" x="69.8755" y="384.48" font-size="10" text-anchor="end" baseline-shift="-5" font-family="Helvetica">0</text>
<text fill="#000000" x="69.8755" y="314.064" font-size="10" text-anchor="end" baseline-shift="-5" font-family="Helvetica">20</text>
<text fill="#000000" x="69.8755" y="243.648" font-size="10" text-anchor="end" baseline-shift="-5" font-family="Helvetica">40</text>
<text fill="#000000" x="69.8755" y="173.232" font-size="10" text-anchor="end" baseline-shift="-5" font-family="Helvetica">60</text>
<text fill="#000000" x="69.8755" y="102.816" font-size="10" text-anchor="end" baseline-shift="-5" font-family="Helvetica">80</text>
<text fill="#000000" x="69.8755" y="32.4" font-size="10" text-anchor="end" baseline-shift="-5" font-family="Helvetica">100</text>
<polyline fill="none" stroke="#0000ff" stroke-width="0.5" points="79.344,378.422 83.808,372.442 88.272,366.363 92.736,360.501 97.2,354.418 101.664,348.457 106.128,342.541 110.592,336.577 115.056,330.405 119.52,324.652 123.984,318.726 128.448,312.787 132.912,306.52 137.376,300.844 141.84,295.023 146.304,288.91 150.768,282.913 155.232,276.977 159.696,271.194 164.16,264.85 168.624,259.047 173.088,252.989 177.552,246.868 182.016,240.676 186.48,234.736 190.944,228.428 195.408,222.315 199.872,216.048 204.336,210.086 208.8,203.952 213.264,197.066 217.728,190.643 222.192,184.221 226.656,177.517 231.12,170.873 235.584,163.737 240.048,157.164 244.512,149.784 248.976,143.42 253.44,136.65 257.904,130.888 262.368,125.588 266.832,120.411 271.296,115.972 275.76,111.085 280.224,106.863 284.688,102.492 289.152,98.3956 293.616,95.2079 298.08,91.1843 302.544,88.4124 307.008,84.6036 311.472,82.2144 315.936,79.2263 320.4,76.5505 324.864,74.0275 329.328,71.5492 333.792,69.2195 338.256,66.7718 342.72,64.8667 347.184,63.0225 351.648,60.784 356.112,59.2693 360.576,57.1206 365.04,55.6686 369.504,54.0244 373.968,52.5189 378.432,51.2578 382.896,49.8319 387.36,48.5531 391.824,47.3645 396.288,46.1121 400.752,45.008 405.216,43.9764 409.68,43.0064 414.144,42.1449 418.608,41.3232 423.072,40.3521 427.536,39.6032 432,38.9402 436.464,38.2805 440.928,37.5953 445.392,37.0946 449.856,36.4451 454.32,35.9 458.784,35.4614 463.248,35.0149 467.712,34.6143 472.176,34.2794 476.64,33.9059 481.104,33.6492 485.568,33.3908 490.032,33.1725 494.496,32.9606 498.96,32.7898 503.424,32.6718 507.888,32.5511 512.352,32.4771 516.816,32.4225 521.28,32.4"/>
</g>
</svg>
