<?xml version="1.0" encoding="UTF-8" standalone="no"?>
<svg
   xmlns:dc="http://purl.org/dc/elements/1.1/"
   xmlns:cc="http://creativecommons.org/ns#"
   xmlns:rdf="http://www.w3.org/1999/02/22-rdf-syntax-ns#"
   xmlns:svg="http://www.w3.org/2000/svg"
   xmlns="http://www.w3.org/2000/svg"
   xmlns:sodipodi="http://sodipodi.sourceforge.net/DTD/sodipodi-0.dtd"
   xmlns:inkscape="http://www.inkscape.org/namespaces/inkscape"
   width="3200px"
   height="1577px"
   viewBox="0 0 3200 1577"
   id="svg2"
   version="1.1"
   inkscape:version="0.91 r13725"
   sodipodi:docname="plots.svg">
  <metadata
     id="metadata292">
    <rdf:RDF>
      <cc:Work
         rdf:about="">
        <dc:format>image/svg+xml</dc:format>
        <dc:type
           rdf:resource="http://purl.org/dc/dcmitype/StillImage" />
      </cc:Work>
    </rdf:RDF>
  </metadata>
  <sodipodi:namedview
     pagecolor="#ffffff"
     bordercolor="#666666"
     borderopacity="1"
     objecttolerance="10"
     gridtolerance="10"
     guidetolerance="10"
     inkscape:pageopacity="0"
     inkscape:pageshadow="2"
     inkscape:window-width="3200"
     inkscape:window-height="1671"
     id="namedview290"
     showgrid="false"
     inkscape:zoom="3.3862209"
     inkscape:cx="287.95954"
     inkscape:cy="1346.7014"
     inkscape:window-x="0"
     inkscape:window-y="55"
     inkscape:window-maximized="1"
     inkscape:current-layer="g10" />
  <title
     id="title4">glps_renderer figure</title>
  <desc
     id="desc6">
Creator: GL2PS 1.3.9, (C) 1999-2015 C. Geuzaine
For: Octave
CreationDate: Mon Nov 21 17:06:13 2016
</desc>
  <defs
     id="defs8" />
  <g
     shape-rendering="crispEdges"
     id="g10">
    <polygon
       fill="#ffffff"
       points="74.88,119.581 521.28,119.581 74.88,34.166"
       id="polygon12" />
    <polygon
       fill="#ffffff"
       points="521.28,119.581 521.28,34.166 74.88,34.166"
       id="polygon14" />
    <polygon
       fill="#ffffff"
       points="74.88,252.031 521.28,252.031 74.88,166.615"
       id="polygon16" />
    <polygon
       fill="#ffffff"
       points="521.28,252.031 521.28,166.615 74.88,166.615"
       id="polygon18" />
    <polygon
       fill="#ffffff"
       points="74.88,384.48 521.28,384.48 74.88,299.065"
       id="polygon20" />
    <polygon
       fill="#ffffff"
       points="521.28,384.48 521.28,299.065 74.88,299.065"
       id="polygon22" />
    <polyline
       fill="none"
       stroke="#000000"
       stroke-width="0.5"
       stroke-dasharray="16,0"
       points="74.88,119.581 521.28,119.581"
       id="polyline24" />
    <polyline
       fill="none"
       stroke="#000000"
       stroke-width="0.5"
       stroke-dasharray="16,0"
       points="74.88,34.166 521.28,34.166"
       id="polyline26" />
    <polyline
       fill="none"
       stroke="#000000"
       stroke-width="0.5"
       stroke-dasharray="16,0"
       points="74.88,119.581 74.88,34.166"
       id="polyline28" />
    <polyline
       fill="none"
       stroke="#000000"
       stroke-width="0.5"
       stroke-dasharray="16,0"
       points="521.28,119.581 521.28,34.166"
       id="polyline30" />
    <polyline
       fill="none"
       stroke="#000000"
       stroke-width="0.5"
       stroke-dasharray="16,0"
       points="74.88,119.581 74.88,115.095"
       id="polyline32" />
    <polyline
       fill="none"
       stroke="#000000"
       stroke-width="0.5"
       stroke-dasharray="16,0"
       points="74.88,34.166 74.88,38.6519"
       id="polyline34" />
    <polyline
       fill="none"
       stroke="#000000"
       stroke-width="0.5"
       stroke-dasharray="16,0"
       points="164.16,119.581 164.16,115.095"
       id="polyline36" />
    <polyline
       fill="none"
       stroke="#000000"
       stroke-width="0.5"
       stroke-dasharray="16,0"
       points="164.16,34.166 164.16,38.6519"
       id="polyline38" />
    <polyline
       fill="none"
       stroke="#000000"
       stroke-width="0.5"
       stroke-dasharray="16,0"
       points="253.44,119.581 253.44,115.095"
       id="polyline40" />
    <polyline
       fill="none"
       stroke="#000000"
       stroke-width="0.5"
       stroke-dasharray="16,0"
       points="253.44,34.166 253.44,38.6519"
       id="polyline42" />
    <polyline
       fill="none"
       stroke="#000000"
       stroke-width="0.5"
       stroke-dasharray="16,0"
       points="342.72,119.581 342.72,115.095"
       id="polyline44" />
    <polyline
       fill="none"
       stroke="#000000"
       stroke-width="0.5"
       stroke-dasharray="16,0"
       points="342.72,34.166 342.72,38.6519"
       id="polyline46" />
    <polyline
       fill="none"
       stroke="#000000"
       stroke-width="0.5"
       stroke-dasharray="16,0"
       points="432,119.581 432,115.095"
       id="polyline48" />
    <polyline
       fill="none"
       stroke="#000000"
       stroke-width="0.5"
       stroke-dasharray="16,0"
       points="432,34.166 432,38.6519"
       id="polyline50" />
    <polyline
       fill="none"
       stroke="#000000"
       stroke-width="0.5"
       stroke-dasharray="16,0"
       points="521.28,119.581 521.28,115.095"
       id="polyline52" />
    <polyline
       fill="none"
       stroke="#000000"
       stroke-width="0.5"
       stroke-dasharray="16,0"
       points="521.28,34.166 521.28,38.6519"
       id="polyline54" />
    <text
       fill="#000000"
       x="74.88"
       y="124.606"
       font-size="10"
       text-anchor="middle"
       baseline-shift="-10"
       font-family="Helvetica"
       id="text56">0</text>
    <text
       fill="#000000"
       x="164.16"
       y="124.606"
       font-size="10"
       text-anchor="middle"
       baseline-shift="-10"
       font-family="Helvetica"
       id="text58">20</text>
    <text
       fill="#000000"
       x="253.44"
       y="124.606"
       font-size="10"
       text-anchor="middle"
       baseline-shift="-10"
       font-family="Helvetica"
       id="text60">40</text>
    <text
       fill="#000000"
       x="342.72"
       y="124.606"
       font-size="10"
       text-anchor="middle"
       baseline-shift="-10"
       font-family="Helvetica"
       id="text62">60</text>
    <text
       fill="#000000"
       x="432"
       y="124.606"
       font-size="10"
       text-anchor="middle"
       baseline-shift="-10"
       font-family="Helvetica"
       id="text64">80</text>
    <text
       fill="#000000"
       x="521.28"
       y="124.606"
       font-size="10"
       text-anchor="middle"
       baseline-shift="-10"
       font-family="Helvetica"
       id="text66">100</text>
    <polyline
       fill="none"
       stroke="#000000"
       stroke-width="0.5"
       stroke-dasharray="16,0"
       points="74.88,119.581 79.348,119.581"
       id="polyline68" />
    <polyline
       fill="none"
       stroke="#000000"
       stroke-width="0.5"
       stroke-dasharray="16,0"
       points="521.28,119.581 516.812,119.581"
       id="polyline70" />
    <polyline
       fill="none"
       stroke="#000000"
       stroke-width="0.5"
       stroke-dasharray="16,0"
       points="74.88,105.345 79.348,105.345"
       id="polyline72" />
    <polyline
       fill="none"
       stroke="#000000"
       stroke-width="0.5"
       stroke-dasharray="16,0"
       points="521.28,105.345 516.812,105.345"
       id="polyline74" />
    <polyline
       fill="none"
       stroke="#000000"
       stroke-width="0.5"
       stroke-dasharray="16,0"
       points="74.88,91.1096 79.348,91.1096"
       id="polyline76" />
    <polyline
       fill="none"
       stroke="#000000"
       stroke-width="0.5"
       stroke-dasharray="16,0"
       points="521.28,91.1096 516.812,91.1096"
       id="polyline78" />
    <polyline
       fill="none"
       stroke="#000000"
       stroke-width="0.5"
       stroke-dasharray="16,0"
       points="74.88,76.8737 79.348,76.8737"
       id="polyline80" />
    <polyline
       fill="none"
       stroke="#000000"
       stroke-width="0.5"
       stroke-dasharray="16,0"
       points="521.28,76.8737 516.812,76.8737"
       id="polyline82" />
    <polyline
       fill="none"
       stroke="#000000"
       stroke-width="0.5"
       stroke-dasharray="16,0"
       points="74.88,62.6377 79.348,62.6377"
       id="polyline84" />
    <polyline
       fill="none"
       stroke="#000000"
       stroke-width="0.5"
       stroke-dasharray="16,0"
       points="521.28,62.6377 516.812,62.6377"
       id="polyline86" />
    <polyline
       fill="none"
       stroke="#000000"
       stroke-width="0.5"
       stroke-dasharray="16,0"
       points="74.88,48.4019 79.348,48.4019"
       id="polyline88" />
    <polyline
       fill="none"
       stroke="#000000"
       stroke-width="0.5"
       stroke-dasharray="16,0"
       points="521.28,48.4019 516.812,48.4019"
       id="polyline90" />
    <polyline
       fill="none"
       stroke="#000000"
       stroke-width="0.5"
       stroke-dasharray="16,0"
       points="74.88,34.166 79.348,34.166"
       id="polyline92" />
    <polyline
       fill="none"
       stroke="#000000"
       stroke-width="0.5"
       stroke-dasharray="16,0"
       points="521.28,34.166 516.812,34.166"
       id="polyline94" />
    <text
       fill="#000000"
       x="69.8755"
       y="119.581"
       font-size="10"
       text-anchor="end"
       baseline-shift="-5"
       font-family="Helvetica"
       id="text96">0</text>
    <text
       fill="#000000"
       x="69.8755"
       y="105.345"
       font-size="10"
       text-anchor="end"
       baseline-shift="-5"
       font-family="Helvetica"
       id="text98">20</text>
    <text
       fill="#000000"
       x="69.8755"
       y="91.1096"
       font-size="10"
       text-anchor="end"
       baseline-shift="-5"
       font-family="Helvetica"
       id="text100">40</text>
    <text
       fill="#000000"
       x="69.8755"
       y="76.8738"
       font-size="10"
       text-anchor="end"
       baseline-shift="-5"
       font-family="Helvetica"
       id="text102">60</text>
    <text
       fill="#000000"
       x="69.8755"
       y="62.6377"
       font-size="10"
       text-anchor="end"
       baseline-shift="-5"
       font-family="Helvetica"
       id="text104">80</text>
    <text
       fill="#000000"
       x="69.8755"
       y="48.4019"
       font-size="10"
       text-anchor="end"
       baseline-shift="-5"
       font-family="Helvetica"
       id="text106">100</text>
    <text
       fill="#000000"
       x="69.8755"
       y="34.166"
       font-size="10"
       text-anchor="end"
       baseline-shift="-5"
       font-family="Helvetica"
       id="text108">120</text>
    <text
       fill="#000000"
       x="298.08"
       y="135.606"
       font-size="10"
       text-anchor="middle"
       baseline-shift="-10"
       font-family="Helvetica"
       id="text110">Error Chance (1-Success Percentage)</text>
    <text
       x="-71.262825"
       y="41.378586"
       font-size="10"
       transform="matrix(0,-1,1,0,0,0)"
       baseline-shift="0"
       id="text112"
       style="font-size:10px;font-family:Helvetica;baseline-shift:0px;text-anchor:middle;fill:#000000">Number of Bits Needed</text>
    <text
       x="-68.604996"
       y="51.714592"
       font-size="10"
       transform="matrix(0,-1,1,0,0,0)"
       baseline-shift="0"
       style="font-size:10px;font-family:Helvetica;baseline-shift:0px;text-anchor:middle;fill:#000000"
       id="text3483">for Transmission</text>
    <polyline
       fill="none"
       stroke="#0000ff"
       stroke-width="0.5"
       points="79.344,82.2063 83.808,80.4675 88.272,78.5471 92.7361,76.6571 97.2,74.9426 101.664,73.0118 106.128,71.3245 110.592,69.4561 115.056,67.5415 119.52,66.0092 123.984,64.2429 128.448,62.1671 132.912,60.8389 137.376,59.901 141.84,58.5526 146.304,57.5095 150.768,56.7891 155.232,54.4719 159.696,54.4097 164.16,53.4297 168.624,54.1448 173.088,51.5654 177.552,53.4861 182.016,50.5374 186.48,51.071 190.944,47.5122 195.408,119.581 199.872,37.7249 204.336,51.9609 208.8,119.581 213.264,119.581 217.728,119.581 222.192,119.581 226.656,119.581 231.12,119.581 235.584,119.581 240.048,119.581 244.512,119.581 248.976,119.581 253.44,119.581 257.904,119.581 262.368,119.581 266.832,119.581 271.296,119.581 275.76,119.581 280.224,119.581 284.688,119.581 289.152,119.581 293.616,119.581 298.08,119.581 302.544,119.581 307.008,119.581 311.472,119.581 315.936,119.581 320.4,119.581 324.864,119.581 329.328,119.581 333.792,119.581 338.256,119.581 342.72,119.581 347.184,119.581 351.648,119.581 356.112,119.581 360.576,119.581 365.04,119.581 369.504,119.581 373.968,119.581 378.432,119.581 382.896,119.581 387.36,119.581 391.824,119.581 396.288,119.581 400.752,119.581 405.216,119.581 409.68,119.581 414.144,119.581 418.608,119.581 423.072,119.581 427.536,119.581 432,119.581 436.464,119.581 440.928,119.581 445.392,119.581 449.856,119.581 454.32,119.581 458.784,119.581 463.248,119.581 467.712,119.581 472.176,119.581 476.64,119.581 481.104,119.581 485.568,119.581 490.032,119.581 494.496,119.581 498.96,119.581 503.424,119.581 507.888,119.581 512.352,119.581 516.816,119.581 521.28,119.581"
       id="polyline114" />
    <polyline
       fill="none"
       stroke="#000000"
       stroke-width="0.5"
       stroke-dasharray="16,0"
       points="74.88,252.031 521.28,252.031"
       id="polyline116" />
    <polyline
       fill="none"
       stroke="#000000"
       stroke-width="0.5"
       stroke-dasharray="16,0"
       points="74.88,166.615 521.28,166.615"
       id="polyline118" />
    <polyline
       fill="none"
       stroke="#000000"
       stroke-width="0.5"
       stroke-dasharray="16,0"
       points="74.88,252.031 74.88,166.615"
       id="polyline120" />
    <polyline
       fill="none"
       stroke="#000000"
       stroke-width="0.5"
       stroke-dasharray="16,0"
       points="521.28,252.031 521.28,166.615"
       id="polyline122" />
    <polyline
       fill="none"
       stroke="#000000"
       stroke-width="0.5"
       stroke-dasharray="16,0"
       points="74.88,252.031 74.88,247.545"
       id="polyline124" />
    <polyline
       fill="none"
       stroke="#000000"
       stroke-width="0.5"
       stroke-dasharray="16,0"
       points="74.88,166.615 74.88,171.101"
       id="polyline126" />
    <polyline
       fill="none"
       stroke="#000000"
       stroke-width="0.5"
       stroke-dasharray="16,0"
       points="164.16,252.031 164.16,247.545"
       id="polyline128" />
    <polyline
       fill="none"
       stroke="#000000"
       stroke-width="0.5"
       stroke-dasharray="16,0"
       points="164.16,166.615 164.16,171.101"
       id="polyline130" />
    <polyline
       fill="none"
       stroke="#000000"
       stroke-width="0.5"
       stroke-dasharray="16,0"
       points="253.44,252.031 253.44,247.545"
       id="polyline132" />
    <polyline
       fill="none"
       stroke="#000000"
       stroke-width="0.5"
       stroke-dasharray="16,0"
       points="253.44,166.615 253.44,171.101"
       id="polyline134" />
    <polyline
       fill="none"
       stroke="#000000"
       stroke-width="0.5"
       stroke-dasharray="16,0"
       points="342.72,252.031 342.72,247.545"
       id="polyline136" />
    <polyline
       fill="none"
       stroke="#000000"
       stroke-width="0.5"
       stroke-dasharray="16,0"
       points="342.72,166.615 342.72,171.101"
       id="polyline138" />
    <polyline
       fill="none"
       stroke="#000000"
       stroke-width="0.5"
       stroke-dasharray="16,0"
       points="432,252.031 432,247.545"
       id="polyline140" />
    <polyline
       fill="none"
       stroke="#000000"
       stroke-width="0.5"
       stroke-dasharray="16,0"
       points="432,166.615 432,171.101"
       id="polyline142" />
    <polyline
       fill="none"
       stroke="#000000"
       stroke-width="0.5"
       stroke-dasharray="16,0"
       points="521.28,252.031 521.28,247.545"
       id="polyline144" />
    <polyline
       fill="none"
       stroke="#000000"
       stroke-width="0.5"
       stroke-dasharray="16,0"
       points="521.28,166.615 521.28,171.101"
       id="polyline146" />
    <text
       fill="#000000"
       x="74.88"
       y="257.055"
       font-size="10"
       text-anchor="middle"
       baseline-shift="-10"
       font-family="Helvetica"
       id="text148">0</text>
    <text
       fill="#000000"
       x="164.16"
       y="257.055"
       font-size="10"
       text-anchor="middle"
       baseline-shift="-10"
       font-family="Helvetica"
       id="text150">20</text>
    <text
       fill="#000000"
       x="253.44"
       y="257.055"
       font-size="10"
       text-anchor="middle"
       baseline-shift="-10"
       font-family="Helvetica"
       id="text152">40</text>
    <text
       fill="#000000"
       x="342.72"
       y="257.055"
       font-size="10"
       text-anchor="middle"
       baseline-shift="-10"
       font-family="Helvetica"
       id="text154">60</text>
    <text
       fill="#000000"
       x="432"
       y="257.055"
       font-size="10"
       text-anchor="middle"
       baseline-shift="-10"
       font-family="Helvetica"
       id="text156">80</text>
    <text
       fill="#000000"
       x="521.28"
       y="257.055"
       font-size="10"
       text-anchor="middle"
       baseline-shift="-10"
       font-family="Helvetica"
       id="text158">100</text>
    <polyline
       fill="none"
       stroke="#000000"
       stroke-width="0.5"
       stroke-dasharray="16,0"
       points="74.88,252.031 79.348,252.031"
       id="polyline160" />
    <polyline
       fill="none"
       stroke="#000000"
       stroke-width="0.5"
       stroke-dasharray="16,0"
       points="521.28,252.031 516.812,252.031"
       id="polyline162" />
    <polyline
       fill="none"
       stroke="#000000"
       stroke-width="0.5"
       stroke-dasharray="16,0"
       points="74.88,234.948 79.348,234.948"
       id="polyline164" />
    <polyline
       fill="none"
       stroke="#000000"
       stroke-width="0.5"
       stroke-dasharray="16,0"
       points="521.28,234.948 516.812,234.948"
       id="polyline166" />
    <polyline
       fill="none"
       stroke="#000000"
       stroke-width="0.5"
       stroke-dasharray="16,0"
       points="74.88,217.865 79.348,217.865"
       id="polyline168" />
    <polyline
       fill="none"
       stroke="#000000"
       stroke-width="0.5"
       stroke-dasharray="16,0"
       points="521.28,217.865 516.812,217.865"
       id="polyline170" />
    <polyline
       fill="none"
       stroke="#000000"
       stroke-width="0.5"
       stroke-dasharray="16,0"
       points="74.88,200.781 79.348,200.781"
       id="polyline172" />
    <polyline
       fill="none"
       stroke="#000000"
       stroke-width="0.5"
       stroke-dasharray="16,0"
       points="521.28,200.781 516.812,200.781"
       id="polyline174" />
    <polyline
       fill="none"
       stroke="#000000"
       stroke-width="0.5"
       stroke-dasharray="16,0"
       points="74.88,183.698 79.348,183.698"
       id="polyline176" />
    <polyline
       fill="none"
       stroke="#000000"
       stroke-width="0.5"
       stroke-dasharray="16,0"
       points="521.28,183.698 516.812,183.698"
       id="polyline178" />
    <polyline
       fill="none"
       stroke="#000000"
       stroke-width="0.5"
       stroke-dasharray="16,0"
       points="74.88,166.615 79.348,166.615"
       id="polyline180" />
    <polyline
       fill="none"
       stroke="#000000"
       stroke-width="0.5"
       stroke-dasharray="16,0"
       points="521.28,166.615 516.812,166.615"
       id="polyline182" />
    <text
       fill="#000000"
       x="69.8755"
       y="252.031"
       font-size="10"
       text-anchor="end"
       baseline-shift="-5"
       font-family="Helvetica"
       id="text184">0</text>
    <text
       fill="#000000"
       x="69.8755"
       y="234.948"
       font-size="10"
       text-anchor="end"
       baseline-shift="-5"
       font-family="Helvetica"
       id="text186">2000</text>
    <text
       fill="#000000"
       x="69.8755"
       y="217.865"
       font-size="10"
       text-anchor="end"
       baseline-shift="-5"
       font-family="Helvetica"
       id="text188">4000</text>
    <text
       fill="#000000"
       x="69.8755"
       y="200.781"
       font-size="10"
       text-anchor="end"
       baseline-shift="-5"
       font-family="Helvetica"
       id="text190">6000</text>
    <text
       fill="#000000"
       x="69.8755"
       y="183.698"
       font-size="10"
       text-anchor="end"
       baseline-shift="-5"
       font-family="Helvetica"
       id="text192">8000</text>
    <text
       fill="#000000"
       x="69.8755"
       y="166.615"
       font-size="10"
       text-anchor="end"
       baseline-shift="-5"
       font-family="Helvetica"
       id="text194">10000</text>
    <text
       fill="#000000"
       x="298.08"
       y="268.055"
       font-size="10"
       text-anchor="middle"
       baseline-shift="-10"
       font-family="Helvetica"
       id="text196">Error Chance (1-Success Percentage)</text>
    <text
       fill="#000000"
       x="35.8755"
       y="209.323"
       font-size="10"
       transform="rotate(-90, 35.8755, 209.323)"
       text-anchor="middle"
       baseline-shift="0"
       font-family="Helvetica"
       id="text198">Number of Errant Messages</text>
    <polyline
       fill="none"
       stroke="#0000ff"
       stroke-width="0.5"
       points="79.344,251.091 83.808,248.537 88.272,244.053 92.7361,239.056 97.2,231.71 101.664,223.733 106.128,215.294 110.592,207.487 115.056,200.209 119.52,194 123.984,186.671 128.448,181.922 132.912,177.549 137.376,174.713 141.84,171.988 146.304,170.374 150.768,168.939 155.232,168.153 159.696,167.546 164.16,167.154 168.624,166.991 173.088,166.846 177.552,166.735 182.016,166.701 186.48,166.65 190.944,166.65 195.408,166.615 199.872,166.624 204.336,166.624 208.8,166.615 213.264,166.615 217.728,166.615 222.192,166.615 226.656,166.615 231.12,166.615 235.584,166.615 240.048,166.615 244.512,166.615 248.976,166.615 253.44,166.615 257.904,166.615 262.368,166.615 266.832,166.615 271.296,166.615 275.76,166.615 280.224,166.615 284.688,166.615 289.152,166.615 293.616,166.615 298.08,166.615 302.544,166.615 307.008,166.615 311.472,166.615 315.936,166.615 320.4,166.615 324.864,166.615 329.328,166.615 333.792,166.615 338.256,166.615 342.72,166.615 347.184,166.615 351.648,166.615 356.112,166.615 360.576,166.615 365.04,166.615 369.504,166.615 373.968,166.615 378.432,166.615 382.896,166.615 387.36,166.615 391.824,166.615 396.288,166.615 400.752,166.615 405.216,166.615 409.68,166.615 414.144,166.615 418.608,166.615 423.072,166.615 427.536,166.615 432,166.615 436.464,166.615 440.928,166.615 445.392,166.615 449.856,166.615 454.32,166.615 458.784,166.615 463.248,166.615 467.712,166.615 472.176,166.615 476.64,166.615 481.104,166.615 485.568,166.615 490.032,166.615 494.496,166.615 498.96,166.615 503.424,166.615 507.888,166.615 512.352,166.615 516.816,166.615 521.28,166.615"
       id="polyline200" />
    <polyline
       fill="none"
       stroke="#000000"
       stroke-width="0.5"
       stroke-dasharray="16,0"
       points="74.88,384.48 521.28,384.48"
       id="polyline202" />
    <polyline
       fill="none"
       stroke="#000000"
       stroke-width="0.5"
       stroke-dasharray="16,0"
       points="74.88,299.065 521.28,299.065"
       id="polyline204" />
    <polyline
       fill="none"
       stroke="#000000"
       stroke-width="0.5"
       stroke-dasharray="16,0"
       points="74.88,384.48 74.88,299.065"
       id="polyline206" />
    <polyline
       fill="none"
       stroke="#000000"
       stroke-width="0.5"
       stroke-dasharray="16,0"
       points="521.28,384.48 521.28,299.065"
       id="polyline208" />
    <polyline
       fill="none"
       stroke="#000000"
       stroke-width="0.5"
       stroke-dasharray="16,0"
       points="74.88,384.48 74.88,379.994"
       id="polyline210" />
    <polyline
       fill="none"
       stroke="#000000"
       stroke-width="0.5"
       stroke-dasharray="16,0"
       points="74.88,299.065 74.88,303.551"
       id="polyline212" />
    <polyline
       fill="none"
       stroke="#000000"
       stroke-width="0.5"
       stroke-dasharray="16,0"
       points="164.16,384.48 164.16,379.994"
       id="polyline214" />
    <polyline
       fill="none"
       stroke="#000000"
       stroke-width="0.5"
       stroke-dasharray="16,0"
       points="164.16,299.065 164.16,303.551"
       id="polyline216" />
    <polyline
       fill="none"
       stroke="#000000"
       stroke-width="0.5"
       stroke-dasharray="16,0"
       points="253.44,384.48 253.44,379.994"
       id="polyline218" />
    <polyline
       fill="none"
       stroke="#000000"
       stroke-width="0.5"
       stroke-dasharray="16,0"
       points="253.44,299.065 253.44,303.551"
       id="polyline220" />
    <polyline
       fill="none"
       stroke="#000000"
       stroke-width="0.5"
       stroke-dasharray="16,0"
       points="342.72,384.48 342.72,379.994"
       id="polyline222" />
    <polyline
       fill="none"
       stroke="#000000"
       stroke-width="0.5"
       stroke-dasharray="16,0"
       points="342.72,299.065 342.72,303.551"
       id="polyline224" />
    <polyline
       fill="none"
       stroke="#000000"
       stroke-width="0.5"
       stroke-dasharray="16,0"
       points="432,384.48 432,379.994"
       id="polyline226" />
    <polyline
       fill="none"
       stroke="#000000"
       stroke-width="0.5"
       stroke-dasharray="16,0"
       points="432,299.065 432,303.551"
       id="polyline228" />
    <polyline
       fill="none"
       stroke="#000000"
       stroke-width="0.5"
       stroke-dasharray="16,0"
       points="521.28,384.48 521.28,379.994"
       id="polyline230" />
    <polyline
       fill="none"
       stroke="#000000"
       stroke-width="0.5"
       stroke-dasharray="16,0"
       points="521.28,299.065 521.28,303.551"
       id="polyline232" />
    <text
       fill="#000000"
       x="74.88"
       y="389.504"
       font-size="10"
       text-anchor="middle"
       baseline-shift="-10"
       font-family="Helvetica"
       id="text234">0</text>
    <text
       fill="#000000"
       x="164.16"
       y="389.504"
       font-size="10"
       text-anchor="middle"
       baseline-shift="-10"
       font-family="Helvetica"
       id="text236">20</text>
    <text
       fill="#000000"
       x="253.44"
       y="389.504"
       font-size="10"
       text-anchor="middle"
       baseline-shift="-10"
       font-family="Helvetica"
       id="text238">40</text>
    <text
       fill="#000000"
       x="342.72"
       y="389.504"
       font-size="10"
       text-anchor="middle"
       baseline-shift="-10"
       font-family="Helvetica"
       id="text240">60</text>
    <text
       fill="#000000"
       x="432"
       y="389.504"
       font-size="10"
       text-anchor="middle"
       baseline-shift="-10"
       font-family="Helvetica"
       id="text242">80</text>
    <text
       fill="#000000"
       x="521.28"
       y="389.504"
       font-size="10"
       text-anchor="middle"
       baseline-shift="-10"
       font-family="Helvetica"
       id="text244">100</text>
    <polyline
       fill="none"
       stroke="#000000"
       stroke-width="0.5"
       stroke-dasharray="16,0"
       points="74.88,384.48 79.348,384.48"
       id="polyline246" />
    <polyline
       fill="none"
       stroke="#000000"
       stroke-width="0.5"
       stroke-dasharray="16,0"
       points="521.28,384.48 516.812,384.48"
       id="polyline248" />
    <polyline
       fill="none"
       stroke="#000000"
       stroke-width="0.5"
       stroke-dasharray="16,0"
       points="74.88,367.397 79.348,367.397"
       id="polyline250" />
    <polyline
       fill="none"
       stroke="#000000"
       stroke-width="0.5"
       stroke-dasharray="16,0"
       points="521.28,367.397 516.812,367.397"
       id="polyline252" />
    <polyline
       fill="none"
       stroke="#000000"
       stroke-width="0.5"
       stroke-dasharray="16,0"
       points="74.88,350.314 79.348,350.314"
       id="polyline254" />
    <polyline
       fill="none"
       stroke="#000000"
       stroke-width="0.5"
       stroke-dasharray="16,0"
       points="521.28,350.314 516.812,350.314"
       id="polyline256" />
    <polyline
       fill="none"
       stroke="#000000"
       stroke-width="0.5"
       stroke-dasharray="16,0"
       points="74.88,333.231 79.348,333.231"
       id="polyline258" />
    <polyline
       fill="none"
       stroke="#000000"
       stroke-width="0.5"
       stroke-dasharray="16,0"
       points="521.28,333.231 516.812,333.231"
       id="polyline260" />
    <polyline
       fill="none"
       stroke="#000000"
       stroke-width="0.5"
       stroke-dasharray="16,0"
       points="74.88,316.148 79.348,316.148"
       id="polyline262" />
    <polyline
       fill="none"
       stroke="#000000"
       stroke-width="0.5"
       stroke-dasharray="16,0"
       points="521.28,316.148 516.812,316.148"
       id="polyline264" />
    <polyline
       fill="none"
       stroke="#000000"
       stroke-width="0.5"
       stroke-dasharray="16,0"
       points="74.88,299.065 79.348,299.065"
       id="polyline266" />
    <polyline
       fill="none"
       stroke="#000000"
       stroke-width="0.5"
       stroke-dasharray="16,0"
       points="521.28,299.065 516.812,299.065"
       id="polyline268" />
    <text
       fill="#000000"
       x="69.8755"
       y="384.48"
       font-size="10"
       text-anchor="end"
       baseline-shift="-5"
       font-family="Helvetica"
       id="text270">0.3</text>
    <text
       fill="#000000"
       x="69.8755"
       y="367.397"
       font-size="10"
       text-anchor="end"
       baseline-shift="-5"
       font-family="Helvetica"
       id="text272">0.4</text>
    <text
       fill="#000000"
       x="69.8755"
       y="350.314"
       font-size="10"
       text-anchor="end"
       baseline-shift="-5"
       font-family="Helvetica"
       id="text274">0.5</text>
    <text
       fill="#000000"
       x="69.8755"
       y="333.231"
       font-size="10"
       text-anchor="end"
       baseline-shift="-5"
       font-family="Helvetica"
       id="text276">0.6</text>
    <text
       fill="#000000"
       x="69.8755"
       y="316.148"
       font-size="10"
       text-anchor="end"
       baseline-shift="-5"
       font-family="Helvetica"
       id="text278">0.7</text>
    <text
       fill="#000000"
       x="69.8755"
       y="299.065"
       font-size="10"
       text-anchor="end"
       baseline-shift="-5"
       font-family="Helvetica"
       id="text280">0.8</text>
    <text
       fill="#000000"
       x="298.08"
       y="400.504"
       font-size="10"
       text-anchor="middle"
       baseline-shift="-10"
       font-family="Helvetica"
       id="text282">Error Chance (1-Success Percentage)</text>
    <text
       fill="#000000"
       x="50.8755"
       y="341.772"
       font-size="10"
       transform="rotate(-90, 50.8755, 341.772)"
       text-anchor="middle"
       baseline-shift="0"
       font-family="Helvetica"
       id="text284">Channel Capacity</text>
    <polyline
       fill="none"
       stroke="#0000ff"
       stroke-width="0.5"
       points="79.344,305.593 83.808,311.378 88.272,317.198 92.7361,322.417 97.2,326.769 101.664,331.286 106.128,334.938 110.592,338.695 115.056,342.265 119.52,344.939 123.984,347.836 128.448,351.014 132.912,352.93 137.376,354.231 141.84,356.031 146.304,357.371 150.768,358.27 155.232,361.026 159.696,361.098 164.16,362.203 168.624,361.4 173.088,364.219 177.552,362.141 182.016,365.284 186.48,364.735 190.944,368.24"
       id="polyline286" />
    <polyline
       fill="none"
       stroke="#0000ff"
       stroke-width="0.5"
       points="199.872,376.31 204.336,363.801"
       id="polyline288" />
  </g>
</svg>
